<?xml version="1.0" encoding="utf-8"?>
<!-- Generator: Adobe Illustrator 22.0.1, SVG Export Plug-In . SVG Version: 6.00 Build 0)  -->
<svg version="1.1" id="livetype" xmlns="http://www.w3.org/2000/svg" xmlns:xlink="http://www.w3.org/1999/xlink" x="0px" y="0px"
	 viewBox="0 0 202.5 60" style="enable-background:new 0 0 202.5 60;" xml:space="preserve">
<style type="text/css">
	.st0{fill:#FEDE33;}
	.st1{fill:#333333;}
</style>
<g>
	<path class="st0" d="M202.5,12.7c0-0.5,0-0.9,0-1.4c0-1-0.1-2-0.3-3c-0.2-1-0.5-2-1-2.9c-1-1.8-2.7-3.3-4.7-4.2
		c-1-0.5-2.1-0.8-3.2-0.9C192,0.1,190.9,0,189.8,0c-0.5,0-1,0-1.6,0c-0.6,0-1.2,0-1.8,0v0H16.1c-0.6,0-1.2,0-1.9,0c-0.5,0-1,0-1.6,0
		c-1.1,0-2.3,0.1-3.4,0.3C8.2,0.5,7.1,0.8,6.1,1.2C5.1,1.7,4.2,2.3,3.4,3c-0.8,0.7-1.5,1.5-2,2.4C0.9,6.3,0.5,7.3,0.3,8.3
		c-0.2,1-0.3,2-0.3,3c0,0.5,0,0.9,0,1.4v34.7c0,0.5,0,0.9,0,1.4c0,1,0.1,2,0.3,3c0.2,1,0.5,2,1.1,2.9c0.5,0.9,1.2,1.7,2,2.4
		c0.8,0.7,1.7,1.3,2.7,1.8c1,0.5,2.1,0.8,3.2,0.9c1.1,0.2,2.3,0.3,3.4,0.3c0.5,0,1,0,1.6,0c0.6,0,1.2,0,1.9,0h170.2
		c0.6,0,1.2,0,1.8,0c0.5,0,1,0,1.6,0c1.1,0,2.3-0.1,3.4-0.3c1.1-0.2,2.2-0.5,3.2-0.9c1-0.5,1.9-1.1,2.7-1.8c0.8-0.7,1.5-1.5,2-2.4
		c0.5-0.9,0.9-1.9,1-2.9c0.2-1,0.3-2,0.3-3c0-0.5,0-0.9,0-1.4c0-0.5,0-1.1,0-1.6V14.3C202.5,13.8,202.5,13.2,202.5,12.7z"/>
	<g id="_Group_">
		<g id="_Group_2">
			<g id="_Group_3">
				<path id="_Path_" class="st1" d="M37.2,30.5c0-2.5,1.4-4.9,3.5-6.2c-1.4-2-3.6-3.2-6-3.2c-2.5-0.3-5,1.5-6.2,1.5
					c-1.3,0-3.3-1.5-5.4-1.4c-2.8,0.1-5.3,1.6-6.7,4.1c-2.9,5-0.7,12.4,2,16.5c1.4,2,3,4.2,5.1,4.1c2.1-0.1,2.9-1.3,5.4-1.3
					c2.5,0,3.2,1.3,5.4,1.3c2.2,0,3.6-2,5-4c1-1.4,1.8-3,2.3-4.6C38.9,35.9,37.2,33.3,37.2,30.5z"/>
				<path id="_Path_2" class="st1" d="M33.1,18.3c1.2-1.5,1.8-3.3,1.7-5.2c-1.9,0.2-3.6,1.1-4.8,2.5c-1.2,1.4-1.8,3.2-1.7,5
					C30.1,20.6,31.9,19.8,33.1,18.3z"/>
			</g>
		</g>
		<g>
			<path class="st1" d="M63.5,40.7h-7.1l-1.7,5h-3l6.7-18.6h3.1l6.7,18.6h-3.1L63.5,40.7z M57.1,38.4h5.6l-2.8-8.2h-0.1L57.1,38.4z"
				/>
			<path class="st1" d="M82.7,39c0,4.2-2.3,6.9-5.7,6.9c-1.8,0.1-3.4-0.8-4.3-2.4h-0.1v6.7h-2.8V32.2h2.7v2.3h0.1
				c0.9-1.5,2.6-2.5,4.3-2.4C80.5,32,82.7,34.7,82.7,39z M79.9,39c0-2.7-1.4-4.6-3.6-4.6c-2.1,0-3.6,1.8-3.6,4.6
				c0,2.7,1.4,4.6,3.6,4.6C78.5,43.5,79.9,41.7,79.9,39z"/>
			<path class="st1" d="M97.7,39c0,4.2-2.3,6.9-5.7,6.9c-1.8,0.1-3.4-0.8-4.3-2.4h-0.1v6.7h-2.8V32.2h2.7v2.3h0.1
				c0.9-1.5,2.6-2.5,4.3-2.4C95.4,32,97.7,34.7,97.7,39z M94.8,39c0-2.7-1.4-4.6-3.6-4.6c-2.1,0-3.6,1.8-3.6,4.6
				c0,2.7,1.4,4.6,3.6,4.6C93.4,43.5,94.8,41.7,94.8,39L94.8,39z"/>
			<path class="st1" d="M107.6,40.6c0.2,1.8,2,3.1,4.5,3.1c2.3,0,4-1.2,4-2.9c0-1.4-1-2.3-3.4-2.9l-2.4-0.6c-3.4-0.8-5-2.4-5-5
				c0-3.2,2.8-5.4,6.8-5.4c3.9,0,6.6,2.2,6.7,5.4h-2.8c-0.2-1.9-1.7-3-4-3s-3.8,1.1-3.8,2.8c0,1.3,1,2.1,3.4,2.7l2.1,0.5
				c3.8,0.9,5.4,2.4,5.4,5.2c0,3.5-2.8,5.7-7.2,5.7c-4.1,0-6.9-2.1-7.1-5.5L107.6,40.6z"/>
			<path class="st1" d="M125,28.9v3.2h2.6v2.2H125v7.5c0,1.2,0.5,1.7,1.7,1.7c0.3,0,0.6,0,0.9-0.1v2.2c-0.5,0.1-1,0.1-1.5,0.1
				c-2.7,0-3.8-1-3.8-3.7v-7.8h-2v-2.2h2v-3.2H125z"/>
			<path class="st1" d="M129.1,39c0-4.3,2.5-7,6.4-7c3.9,0,6.4,2.7,6.4,7c0,4.3-2.5,7-6.4,7C131.6,45.9,129.1,43.2,129.1,39z
				 M139.1,39c0-2.9-1.3-4.7-3.6-4.7c-2.3,0-3.6,1.7-3.6,4.7c0,2.9,1.3,4.7,3.6,4.7C137.8,43.6,139.1,41.9,139.1,39L139.1,39z"/>
			<path class="st1" d="M144.3,32.2h2.7v2.3h0.1c0.4-1.5,1.7-2.5,3.3-2.5c0.3,0,0.6,0,1,0.1v2.6c-0.4-0.1-0.8-0.2-1.3-0.2
				c-1.6-0.1-2.9,1.1-2.9,2.7c0,0.1,0,0.3,0,0.4v8.1h-2.8L144.3,32.2z"/>
			<path class="st1" d="M164.1,41.8c-0.4,2.5-2.8,4.2-5.8,4.2c-4,0-6.4-2.6-6.4-6.9c0-4.3,2.5-7,6.3-7c3.8,0,6.1,2.6,6.1,6.7v1h-9.6
				v0.2c-0.2,1.9,1.3,3.7,3.2,3.8c0.1,0,0.3,0,0.4,0c1.4,0.1,2.6-0.7,3.1-1.9L164.1,41.8z M154.7,37.7h6.8c0.1-1.8-1.3-3.3-3.1-3.4
				c-0.1,0-0.2,0-0.3,0C156.2,34.2,154.7,35.8,154.7,37.7C154.7,37.7,154.7,37.7,154.7,37.7z"/>
		</g>
	</g>
	<g id="_Group_4">
		<g>
			<path class="st1" d="M56.7,13.1c2.2-0.2,4.1,1.5,4.2,3.7c0,0.3,0,0.5,0,0.8c0,2.9-1.5,4.5-4.2,4.5h-3.2v-9H56.7z M54.9,20.8h1.7
				c1.6,0.1,2.9-1.1,3-2.6c0-0.2,0-0.4,0-0.6c0.2-1.5-0.9-3-2.4-3.2c-0.2,0-0.4,0-0.5,0h-1.7V20.8z"/>
			<path class="st1" d="M62.5,18.7c-0.2-1.8,1.1-3.3,2.9-3.5c1.8-0.2,3.3,1.1,3.5,2.9c0,0.2,0,0.4,0,0.6c0.2,1.8-1.1,3.3-2.9,3.5
				c-1.8,0.2-3.3-1.1-3.5-2.9C62.5,19.1,62.5,18.9,62.5,18.7z M67.5,18.7c0-1.5-0.7-2.3-1.8-2.3c-1.2,0-1.8,0.9-1.8,2.3
				c0,1.5,0.7,2.3,1.8,2.3C66.9,21,67.5,20.1,67.5,18.7L67.5,18.7z"/>
			<path class="st1" d="M77.4,22H76l-1.4-5h-0.1l-1.4,5h-1.4l-1.9-6.8h1.4l1.2,5.2h0.1l1.4-5.2h1.3l1.4,5.2h0.1l1.2-5.2h1.3L77.4,22
				z"/>
			<path class="st1" d="M80.8,15.3h1.3v1.1h0.1c0.3-0.8,1.2-1.3,2-1.2c1.2-0.1,2.3,0.8,2.4,2c0,0.2,0,0.3,0,0.5V22h-1.3v-4
				c0-1.1-0.5-1.6-1.5-1.6c-0.9,0-1.6,0.6-1.6,1.5c0,0.1,0,0.2,0,0.2v4h-1.3L80.8,15.3z"/>
			<path class="st1" d="M88.6,12.7H90V22h-1.3V12.7z"/>
			<path class="st1" d="M91.8,18.7c-0.2-1.8,1.1-3.3,2.9-3.5c1.8-0.2,3.3,1.1,3.5,2.9c0,0.2,0,0.4,0,0.6c0.2,1.8-1.1,3.3-2.9,3.5
				c-1.8,0.2-3.3-1.1-3.5-2.9C91.8,19.1,91.8,18.9,91.8,18.7z M96.8,18.7c0-1.5-0.7-2.3-1.8-2.3c-1.2,0-1.8,0.9-1.8,2.3
				c0,1.5,0.7,2.3,1.8,2.3C96.2,21,96.8,20.1,96.8,18.7z"/>
			<path class="st1" d="M99.6,20.1c0-1.2,0.9-1.9,2.5-2l1.8-0.1v-0.6c0-0.7-0.5-1.1-1.4-1.1c-0.7,0-1.3,0.3-1.4,0.8h-1.3
				c0.1-1.2,1.2-1.9,2.8-1.9c1.7,0,2.6,0.8,2.6,2.3V22H104v-0.9h-0.1c-0.4,0.7-1.2,1.1-2,1.1c-1.1,0.1-2.1-0.7-2.2-1.8
				C99.6,20.3,99.6,20.2,99.6,20.1z M103.9,19.6V19l-1.6,0.1c-0.9,0.1-1.4,0.4-1.4,1c0,0.6,0.5,1,1.3,1
				C103.1,21.1,103.8,20.5,103.9,19.6C103.9,19.6,103.9,19.6,103.9,19.6z"/>
			<path class="st1" d="M107,18.7c0-2.1,1.1-3.5,2.8-3.5c0.9,0,1.7,0.4,2.1,1.2h0.1v-3.7h1.3V22h-1.3V21h-0.1
				c-0.4,0.8-1.2,1.2-2.1,1.2C108.1,22.2,107,20.8,107,18.7z M108.4,18.7c0,1.4,0.7,2.3,1.8,2.3c1.1,0,1.8-0.9,1.8-2.3
				c0-1.4-0.7-2.3-1.8-2.3C109.1,16.4,108.4,17.2,108.4,18.7L108.4,18.7z"/>
			<path class="st1" d="M118.8,18.7c-0.2-1.8,1.1-3.3,2.9-3.5c1.8-0.2,3.3,1.1,3.5,2.9c0,0.2,0,0.4,0,0.6c0.2,1.8-1.1,3.3-2.9,3.5
				c-1.8,0.2-3.3-1.1-3.5-2.9C118.8,19.1,118.8,18.9,118.8,18.7z M123.8,18.7c0-1.5-0.7-2.3-1.8-2.3c-1.2,0-1.8,0.9-1.8,2.3
				c0,1.5,0.7,2.3,1.8,2.3C123.2,21,123.8,20.1,123.8,18.7z"/>
			<path class="st1" d="M127,15.3h1.3v1.1h0.1c0.3-0.8,1.2-1.3,2-1.2c1.2-0.1,2.3,0.8,2.4,2c0,0.2,0,0.3,0,0.5V22h-1.3v-4
				c0-1.1-0.5-1.6-1.5-1.6c-0.9,0-1.6,0.6-1.6,1.5c0,0.1,0,0.2,0,0.2v4H127V15.3z"/>
			<path class="st1" d="M140.3,13.6v1.7h1.5v1.1h-1.5v3.5c0,0.7,0.3,1,1,1c0.2,0,0.3,0,0.5,0V22c-0.2,0-0.5,0.1-0.7,0.1
				c-1.5,0-2.1-0.5-2.1-1.8v-3.8h-1.1v-1.1h1.1v-1.7H140.3z"/>
			<path class="st1" d="M143.6,12.7h1.3v3.7h0.1c0.4-0.8,1.2-1.3,2.1-1.2c1.2-0.1,2.3,0.9,2.3,2.1c0,0.1,0,0.3,0,0.4V22H148v-4
				c0-1.1-0.5-1.6-1.4-1.6c-0.9-0.1-1.6,0.6-1.7,1.4c0,0.1,0,0.2,0,0.3V22h-1.3L143.6,12.7z"/>
			<path class="st1" d="M157.1,20.2c-0.4,1.3-1.6,2.1-2.9,2c-1.7,0-3.1-1.3-3.1-3c0-0.2,0-0.3,0-0.5c-0.2-1.7,1-3.3,2.7-3.5
				c0.1,0,0.3,0,0.4,0c1.9,0,3,1.3,3,3.4V19h-4.8v0.1c-0.1,1,0.6,1.8,1.6,1.9c0.1,0,0.1,0,0.2,0c0.7,0.1,1.3-0.2,1.6-0.8L157.1,20.2
				z M152.5,18h3.4c0.1-0.9-0.6-1.7-1.5-1.7c-0.1,0-0.1,0-0.2,0C153.2,16.3,152.5,17,152.5,18C152.5,18,152.5,18,152.5,18L152.5,18z
				"/>
		</g>
	</g>
</g>
</svg>
