<?xml version="1.0" encoding="utf-8"?>
<!-- Generator: Adobe Illustrator 22.0.1, SVG Export Plug-In . SVG Version: 6.00 Build 0)  -->
<svg version="1.1" id="Capa_1" xmlns="http://www.w3.org/2000/svg" xmlns:xlink="http://www.w3.org/1999/xlink" x="0px" y="0px"
	 viewBox="182 372 50 50" style="enable-background:new 182 372 50 50;" xml:space="preserve">
<style type="text/css">
	.st0{fill:#333333;}
</style>
<path class="st0" d="M208.9,413.5c-0.4,0-0.7-0.2-0.8-0.5l-5.4-11.9l-11.8-5.4c-0.3-0.2-0.5-0.5-0.5-0.9c0-0.4,0.3-0.7,0.6-0.8
	l26.3-8.7c0.1,0,0.2,0,0.3,0c0.2,0,0.5,0.1,0.6,0.3c0.2,0.2,0.3,0.6,0.2,0.9l-8.6,26.3C209.6,413.3,209.3,413.5,208.9,413.5
	C208.9,413.5,208.9,413.5,208.9,413.5z M193.7,395.1l10.1,4.5c0.2,0.1,0.4,0.2,0.4,0.4l4.5,10.1l7.4-22.4L193.7,395.1z"/>
<path class="st0" d="M207,422c-13.8,0-25-11.2-25-25c0-13.8,11.2-25,25-25c6.7,0,12.9,2.6,17.7,7.3c4.7,4.7,7.3,11,7.3,17.7
	c0,2.7-0.4,5.3-1.3,7.9c-0.1,0.4-0.5,0.6-0.9,0.6c0,0,0,0,0,0c-0.1,0-0.2,0-0.3,0c-0.5-0.2-0.7-0.7-0.6-1.1c0.8-2.3,1.2-4.8,1.2-7.3
	c0-12.8-10.4-23.2-23.2-23.2c-12.8,0-23.2,10.4-23.2,23.2c0,12.8,10.4,23.2,23.2,23.2c7.1,0,13.8-3.2,18.2-8.8
	c0.2-0.2,0.4-0.3,0.7-0.3c0.2,0,0.4,0.1,0.6,0.2c0.4,0.3,0.5,0.9,0.1,1.3C221.8,418.5,214.7,422,207,422z"/>
<path class="st0" d="M228,409.4c-0.5,0-0.9-0.4-0.9-0.9c0-0.5,0.4-0.9,0.9-0.9h0c0.5,0,0.9,0.4,0.9,0.9
	C228.9,409,228.5,409.4,228,409.4L228,409.4z"/>
</svg>
