<?xml version="1.0" encoding="utf-8"?>
<!-- Generator: Adobe Illustrator 22.0.1, SVG Export Plug-In . SVG Version: 6.00 Build 0)  -->
<svg version="1.1" id="Capa_1" xmlns="http://www.w3.org/2000/svg" xmlns:xlink="http://www.w3.org/1999/xlink" x="0px" y="0px"
	 viewBox="0 0 58 50.513" style="enable-background:new 0 0 58 50.513;" xml:space="preserve">
<style type="text/css">
	.st0{display:none;}
</style>
<path class="st0" d="M533.538-270.846l-65.573-37.859v-75.719c0-6.944-5.63-12.572-12.572-12.572
	c-6.942,0-12.572,5.629-12.572,12.572v75.719l-65.573,37.859c-6.013,3.471-8.074,11.16-4.601,17.174
	c3.472,6.013,11.163,8.074,17.174,4.601l65.573-37.859l65.573,37.859c1.98,1.143,4.141,1.686,6.274,1.686
	c4.345,0,8.572-2.254,10.9-6.287C541.612-259.685,539.551-267.375,533.538-270.846z"/>
<g>
	<g>
		<path d="M8.025,26.862c0.323-0.131,0.653-0.247,0.99-0.348c0.434-5.946,3.476-11.182,7.983-14.565
			c0.019-0.432,0.062-0.859,0.126-1.279C11.904,14.261,8.38,20.149,8.025,26.862z M40.876,10.671
			c0.064,0.42,0.106,0.847,0.126,1.279c4.507,3.383,7.55,8.618,7.983,14.565c0.337,0.101,0.667,0.217,0.99,0.348
			C49.62,20.149,46.096,14.261,40.876,10.671z M28.994,48c-2.801,0-5.47-0.577-7.892-1.618c-0.247,0.255-0.505,0.5-0.775,0.731
			c2.686,1.215,5.627,1.855,8.667,1.855c3.085,0,6.018-0.668,8.66-1.866c-0.265-0.228-0.519-0.468-0.762-0.719
			C34.467,47.423,31.798,48,28.994,48z"/>
	</g>
	<g>
		<path d="M12.498,50.513C5.606,50.513,0,44.906,0,38.015s5.606-12.498,12.498-12.498c6.888,0,12.492,5.595,12.492,12.472
			C24.99,44.895,19.386,50.513,12.498,50.513z M12.498,26.484c-6.358,0-11.531,5.173-11.531,11.531s5.173,11.531,11.531,11.531
			c6.355,0,11.525-5.184,11.525-11.557C24.023,31.645,18.853,26.484,12.498,26.484z"/>
	</g>
	<g>
		<path d="M45.502,50.513c-6.894,0-12.503-5.618-12.503-12.524c0-6.877,5.609-12.472,12.503-12.472
			C52.394,25.517,58,31.124,58,38.015S52.394,50.513,45.502,50.513z M45.502,26.484c-6.361,0-11.537,5.161-11.537,11.505
			c0,6.372,5.175,11.557,11.537,11.557c6.358,0,11.531-5.173,11.531-11.531S51.861,26.484,45.502,26.484z"/>
	</g>
	<g>
		<path d="M28.994,24.969c-6.888,0-12.492-5.595-12.492-12.472C16.502,5.606,22.109,0,29,0s12.498,5.606,12.498,12.498
			C41.498,19.375,35.889,24.969,28.994,24.969z M29,0.967c-6.358,0-11.531,5.173-11.531,11.531c0,6.344,5.17,11.505,11.525,11.505
			c6.361,0,11.537-5.161,11.537-11.505C40.531,6.139,35.358,0.967,29,0.967z"/>
	</g>
	<g>
		<g>
			<g>
				<path d="M29,11.56c-1.546,0-2.803-1.258-2.803-2.803S27.454,5.954,29,5.954s2.803,1.258,2.803,2.803S30.546,11.56,29,11.56z
					 M29,6.941c-1.001,0-1.816,0.815-1.816,1.816s0.815,1.816,1.816,1.816s1.816-0.815,1.816-1.816S30.001,6.941,29,6.941z"/>
			</g>
		</g>
		<g>
			<g>
				<path d="M33.619,18.489c-0.272,0-0.494-0.222-0.494-0.494c0-2.275-1.851-4.126-4.126-4.126c-2.275,0-4.126,1.851-4.126,4.126
					c0,0.272-0.222,0.494-0.494,0.494s-0.494-0.222-0.494-0.494c0-2.819,2.294-5.113,5.113-5.113c2.819,0,5.113,2.294,5.113,5.113
					C34.113,18.268,33.891,18.489,33.619,18.489z"/>
			</g>
		</g>
	</g>
	<g>
		<g>
			<g>
				<path d="M12.498,37.077c-1.546,0-2.803-1.258-2.803-2.803s1.258-2.803,2.803-2.803s2.803,1.258,2.803,2.803
					S14.043,37.077,12.498,37.077z M12.498,32.458c-1.001,0-1.816,0.815-1.816,1.816s0.815,1.816,1.816,1.816
					s1.816-0.815,1.816-1.816S13.499,32.458,12.498,32.458z"/>
			</g>
		</g>
		<g>
			<g>
				<path d="M17.117,44.006c-0.272,0-0.494-0.221-0.494-0.494c0-2.275-1.851-4.126-4.126-4.126s-4.126,1.851-4.126,4.126
					c0,0.272-0.222,0.494-0.494,0.494s-0.494-0.221-0.494-0.494c0-2.819,2.294-5.113,5.113-5.113s5.113,2.294,5.113,5.113
					C17.611,43.785,17.389,44.006,17.117,44.006z"/>
			</g>
		</g>
	</g>
	<g>
		<g>
			<g>
				<path d="M45.502,37.077c-1.546,0-2.803-1.258-2.803-2.803s1.258-2.803,2.803-2.803s2.803,1.258,2.803,2.803
					S47.048,37.077,45.502,37.077z M45.502,32.458c-1.001,0-1.816,0.815-1.816,1.816s0.815,1.816,1.816,1.816
					s1.816-0.815,1.816-1.816S46.504,32.458,45.502,32.458z"/>
			</g>
		</g>
		<g>
			<g>
				<path d="M50.122,44.006c-0.272,0-0.494-0.221-0.494-0.494c0-2.275-1.851-4.126-4.126-4.126s-4.126,1.851-4.126,4.126
					c0,0.272-0.221,0.494-0.494,0.494c-0.272,0-0.494-0.221-0.494-0.494c0-2.819,2.294-5.113,5.113-5.113
					c2.819,0,5.113,2.294,5.113,5.113C50.615,43.785,50.394,44.006,50.122,44.006z"/>
			</g>
		</g>
	</g>
</g>
</svg>
