<?xml version="1.0" encoding="utf-8"?>
<!-- Generator: Adobe Illustrator 22.0.1, SVG Export Plug-In . SVG Version: 6.00 Build 0)  -->
<svg version="1.1" id="Capa_1" xmlns="http://www.w3.org/2000/svg" xmlns:xlink="http://www.w3.org/1999/xlink" x="0px" y="0px"
	 viewBox="0 0 58 58" style="enable-background:new 0 0 58 58;" xml:space="preserve">
<g>
	<g>
		<path d="M9.17,53.134c-1.109,0-2.15-0.431-2.932-1.212c-1.43-1.43-1.61-3.739-0.42-5.372l0.292-0.4l-0.289-0.402
			c-3.379-4.704-5.218-10.271-5.317-16.101C0.4,23.504,2.219,17.625,5.766,12.647c0.087-0.122,0.222-0.191,0.372-0.191
			c0.066,0,0.165,0.015,0.264,0.085c0.205,0.146,0.253,0.431,0.107,0.636c-6.78,9.515-6.803,22.329-0.057,31.887l0.339,0.48
			l0.526-0.263c0.578-0.289,1.201-0.436,1.853-0.436c1.107,0,2.148,0.431,2.932,1.214c1.616,1.616,1.616,4.247,0,5.863
			C11.32,52.704,10.279,53.134,9.17,53.134z M9.17,45.756c-0.864,0-1.676,0.336-2.287,0.947c-0.61,0.61-0.946,1.422-0.946,2.287
			c0,0.865,0.336,1.677,0.946,2.287c0.61,0.61,1.422,0.946,2.287,0.946c0.865,0,1.677-0.336,2.287-0.946
			c0.61-0.61,0.946-1.422,0.946-2.287c0-0.865-0.336-1.677-0.946-2.287C10.846,46.093,10.034,45.756,9.17,45.756z"/>
	</g>
	<g>
		<path d="M33.274,57.275c-1.102,0-2.177-0.39-3.025-1.098c-1.074-0.896-1.691-2.213-1.691-3.613v-9.04h-0.812
			c-0.943,0-1.71-0.767-1.71-1.71v-2.396l-0.44-0.168c-3.692-1.409-6.172-5.006-6.172-8.95v-5.92l-0.504-0.138
			c-1.583-0.432-2.688-1.879-2.688-3.519c0-1.822,1.362-3.377,3.168-3.615l0.594-0.079V9.324c0-1.509,1.227-2.736,2.736-2.736
			c1.509,0,2.736,1.227,2.736,2.736v7.752h7.068V9.324c0-1.509,1.227-2.736,2.736-2.736s2.736,1.227,2.736,2.736v7.706l0.594,0.079
			c1.806,0.239,3.168,1.793,3.168,3.615c0,1.64-1.105,3.087-2.688,3.519l-0.504,0.138v5.92c0,3.944-2.48,7.541-6.172,8.95
			l-0.44,0.168v2.396c0,0.943-0.767,1.71-1.71,1.71h-0.784v9.04c0,1.128,0.497,2.19,1.363,2.913
			c0.685,0.571,1.552,0.886,2.443,0.886c0.23,0,0.462-0.021,0.689-0.062c4.068-0.74,7.825-2.34,11.167-4.756
			c0.099-0.071,0.199-0.086,0.266-0.086c0.149,0,0.283,0.069,0.37,0.189c0.072,0.099,0.1,0.22,0.081,0.34
			c-0.019,0.12-0.084,0.226-0.183,0.297c-3.453,2.495-7.335,4.149-11.538,4.914C33.847,57.249,33.559,57.275,33.274,57.275z
			 M29.043,42.612h1.211c0.44,0,0.798-0.358,0.798-0.798v-2.127l-0.775,0.104c-0.423,0.057-0.853,0.085-1.277,0.085
			c-0.424,0-0.854-0.029-1.277-0.085l-0.775-0.104v2.127c0,0.44,0.358,0.798,0.798,0.798h1.252c0,0,0.015-0.001,0.017-0.001
			S29.043,42.612,29.043,42.612z M20.336,30.3c0,4.777,3.887,8.664,8.664,8.664c4.777,0,8.664-3.887,8.664-8.664v-5.928H20.336V30.3
			z M19.88,17.988c-1.509,0-2.736,1.227-2.736,2.736s1.227,2.736,2.736,2.736h18.24c1.509,0,2.736-1.227,2.736-2.736
			s-1.227-2.736-2.736-2.736H19.88z M35.27,7.5c-1.006,0-1.824,0.818-1.824,1.824v7.752h3.648V9.324
			C37.094,8.319,36.276,7.5,35.27,7.5z M22.73,7.5c-1.006,0-1.824,0.818-1.824,1.824v7.752h3.648V9.324
			C24.554,8.319,23.736,7.5,22.73,7.5z"/>
	</g>
	<g>
		<path d="M48.828,49.449c-0.116,0-0.226-0.044-0.311-0.123c-0.184-0.171-0.194-0.461-0.022-0.644l0.013-0.013
			c0.085-0.087,0.201-0.134,0.324-0.134c0.116,0,0.226,0.044,0.311,0.123c0.184,0.172,0.194,0.461,0.022,0.644l-0.013,0.013
			C49.066,49.401,48.95,49.449,48.828,49.449z"/>
	</g>
	<g>
		<path d="M51.66,46.145c-0.067,0-0.169-0.015-0.268-0.088c-0.203-0.148-0.247-0.434-0.099-0.637
			c8.073-11.039,6.902-26.081-2.784-35.767c-5.074-5.074-12.203-7.984-19.559-7.984c-5.786,0-11.292,1.731-15.924,5.005
			c-0.098,0.069-0.197,0.084-0.262,0.084c-0.148,0-0.288-0.072-0.373-0.193c-0.07-0.1-0.098-0.22-0.077-0.34
			C12.333,6.104,12.4,6,12.499,5.929c4.815-3.404,10.523-5.204,16.506-5.204c0.752,0,1.513,0.03,2.263,0.088
			c6.779,0.53,13.131,3.44,17.885,8.194c4.838,4.838,7.775,11.256,8.271,18.071c0.491,6.745-1.425,13.45-5.396,18.879
			C51.942,46.077,51.807,46.145,51.66,46.145z"/>
	</g>
	<g>
		<path d="M9.017,9.941c-0.121,0-0.235-0.047-0.321-0.132c-0.086-0.086-0.134-0.2-0.135-0.322C8.56,9.365,8.607,9.25,8.693,9.164
			l0.021-0.021C8.798,9.058,8.912,9.01,9.035,9.01c0.121,0,0.235,0.047,0.321,0.132c0.179,0.177,0.18,0.466,0.003,0.645L9.338,9.808
			C9.254,9.893,9.139,9.941,9.017,9.941z"/>
	</g>
	<g>
		<path d="M28.224,35.075c-0.079,0-0.154-0.02-0.224-0.06c-0.218-0.124-0.296-0.403-0.172-0.622l1.974-3.486h-2.389
			c-0.174,0-0.335-0.101-0.41-0.257c-0.076-0.156-0.055-0.345,0.053-0.482l2.963-3.743c0.087-0.11,0.218-0.173,0.358-0.173
			c0.072,0,0.179,0.017,0.282,0.098c0.096,0.076,0.156,0.184,0.17,0.305c0.014,0.121-0.02,0.24-0.095,0.336l-2.378,3.004h2.229
			c0.162,0,0.313,0.087,0.394,0.226c0.081,0.14,0.082,0.314,0.003,0.454l-2.36,4.167C28.542,34.986,28.389,35.075,28.224,35.075z"/>
	</g>
</g>
</svg>
