<?xml version="1.0" encoding="utf-8"?>
<!-- Generator: Adobe Illustrator 22.0.1, SVG Export Plug-In . SVG Version: 6.00 Build 0)  -->
<svg version="1.1" id="Capa_1" xmlns="http://www.w3.org/2000/svg" xmlns:xlink="http://www.w3.org/1999/xlink" x="0px" y="0px"
	 viewBox="0 0 58 58" style="enable-background:new 0 0 58 58;" xml:space="preserve">
<style type="text/css">
	.st0{fill:#333333;}
</style>
<g>
	<path class="st0" d="M29,1.273c3.744,0,7.375,0.733,10.792,2.178c3.302,1.396,6.267,3.396,8.814,5.943
		c2.547,2.547,4.546,5.512,5.943,8.814c1.446,3.418,2.178,7.049,2.178,10.792s-0.733,7.375-2.178,10.792
		c-1.396,3.302-3.396,6.267-5.943,8.814c-2.547,2.547-5.512,4.546-8.814,5.943c-3.418,1.445-7.049,2.178-10.792,2.178
		s-7.375-0.733-10.792-2.178c-3.302-1.396-6.267-3.396-8.814-5.943s-4.546-5.512-5.943-8.814C2.006,36.375,1.273,32.744,1.273,29
		s0.733-7.375,2.178-10.792c1.396-3.302,3.396-6.267,5.943-8.814s5.512-4.546,8.814-5.943C21.625,2.006,25.256,1.273,29,1.273 M29,0
		C12.984,0,0,12.984,0,29s12.984,29,29,29s29-12.984,29-29S45.016,0,29,0L29,0z"/>
	<path class="st0" d="M22.93,52.315c-0.057,0-0.114-0.008-0.17-0.023C14.464,50.069,7.93,43.536,5.708,35.241
		c-0.045-0.169-0.022-0.346,0.066-0.498c0.088-0.152,0.229-0.26,0.399-0.306c0.056-0.015,0.114-0.023,0.171-0.023
		c0.296,0,0.556,0.2,0.633,0.487c2.102,7.843,8.28,14.021,16.123,16.123c0.169,0.045,0.311,0.154,0.398,0.306
		c0.088,0.152,0.111,0.329,0.066,0.498C23.486,52.115,23.226,52.315,22.93,52.315z"/>
	<path class="st0" d="M51.657,23.585c-0.296,0-0.556-0.2-0.633-0.487c-2.101-7.843-8.279-14.021-16.123-16.123
		c-0.169-0.045-0.311-0.154-0.398-0.306c-0.088-0.152-0.111-0.328-0.066-0.498c0.077-0.287,0.337-0.487,0.633-0.487
		c0.057,0,0.114,0.008,0.17,0.023c8.295,2.223,14.829,8.756,17.051,17.051c0.094,0.349-0.115,0.71-0.464,0.803
		C51.772,23.577,51.715,23.585,51.657,23.585z"/>
	<path class="st0" d="M28.197,53.1c-0.337-0.011-0.675-0.03-1.001-0.054c-0.175-0.013-0.334-0.093-0.449-0.226
		c-0.114-0.133-0.17-0.302-0.157-0.477c0.026-0.341,0.312-0.607,0.652-0.607c0.017,0,0.034,0.001,0.05,0.002
		c0.314,0.023,0.633,0.041,0.949,0.051c0.175,0.006,0.337,0.08,0.457,0.208c0.12,0.128,0.182,0.295,0.176,0.47
		c-0.012,0.356-0.3,0.634-0.655,0.634L28.197,53.1z"/>
	<path class="st0" d="M30.756,6.264c-0.016,0-0.032,0-0.048-0.002c-0.318-0.023-0.637-0.041-0.951-0.052
		c-0.175-0.006-0.338-0.08-0.457-0.208c-0.12-0.128-0.182-0.295-0.176-0.47c0.012-0.35,0.304-0.634,0.652-0.634l0.025,0
		c0.332,0.011,0.669,0.029,1.004,0.054c0.361,0.027,0.632,0.342,0.605,0.703C31.384,5.997,31.097,6.264,30.756,6.264z"/>
	<path class="st0" d="M24.088,40.291L24,40.289l-0.084-0.003l-0.078-0.005l-0.088-0.007l-0.079-0.009l-0.088-0.012
		c0,0-0.078-0.012-0.088-0.014l-0.071-0.013l-0.078-0.016l-0.066-0.015l-0.083-0.022l-0.09-0.025l-0.083-0.026l-0.081-0.027
		l-0.082-0.03l-0.071-0.028l-0.08-0.034l-0.073-0.033l-0.076-0.036l-0.086-0.044l-0.065-0.036l-0.073-0.042l-0.079-0.048
		l-0.063-0.041l-0.082-0.056l0.01,0.007l-0.065-0.046l-0.078-0.059l-0.066-0.053l-0.066-0.055l-0.065-0.058l-0.064-0.059
		l-0.053-0.052l-5.899-5.898c-0.647-0.647-1.003-1.509-1.003-2.429c0-0.919,0.356-1.782,1.003-2.429
		c0.646-0.647,1.509-1.003,2.428-1.003c0.92,0,1.782,0.356,2.428,1.002l3.465,3.466l13.289-13.288
		c0.647-0.647,1.509-1.003,2.429-1.003c0.92,0,1.782,0.356,2.428,1.003c0.647,0.647,1.003,1.509,1.003,2.429
		c0,0.92-0.356,1.782-1.002,2.428L26.518,39.287l-0.071,0.068l-0.065,0.06c0,0-0.059,0.052-0.067,0.059l-0.071,0.058l-0.066,0.052
		l-0.068,0.051l-0.07,0.049l-0.073,0.049l-0.066,0.042l-0.079,0.047l-0.069,0.039l-0.075,0.04l-0.074,0.038l-0.078,0.037
		l-0.073,0.032l-0.085,0.035l-0.08,0.03l-0.076,0.027l-0.06,0.02l0.003-0.001l-0.094,0.029l-0.087,0.025l-0.074,0.019l-0.093,0.021
		l-0.076,0.015c0,0-0.071,0.013-0.082,0.015l-0.077,0.011l-0.087,0.011l-0.062,0.007l0.014-0.001l-0.105,0.009l-0.089,0.005
		l-0.079,0.003l-0.08,0.001L24.088,40.291z M18.195,28.845c-0.569,0-1.102,0.22-1.501,0.619c-0.399,0.399-0.618,0.932-0.618,1.501
		c0,0.569,0.22,1.102,0.619,1.501l5.978,5.976l0.293,0.221l0.364,0.179l0.35,0.099l0.337,0.036l0.091,0.001l0.329-0.026l0.4-0.106
		l0.333-0.159l0.28-0.199l0.123-0.113l15.733-15.733c0.398-0.398,0.618-0.931,0.618-1.5c0-0.569-0.22-1.102-0.618-1.501
		c-0.399-0.399-0.932-0.618-1.501-0.618c-0.569,0-1.102,0.22-1.501,0.618L24.553,33.393c-0.124,0.124-0.289,0.192-0.464,0.192
		c-0.173,0-0.342-0.07-0.464-0.192l-3.929-3.93C19.297,29.065,18.764,28.845,18.195,28.845z"/>
</g>
</svg>
