<?xml version="1.0" encoding="utf-8"?>
<!-- Generator: Adobe Illustrator 22.0.1, SVG Export Plug-In . SVG Version: 6.00 Build 0)  -->
<svg version="1.1" id="Capa_1" xmlns="http://www.w3.org/2000/svg" xmlns:xlink="http://www.w3.org/1999/xlink" x="0px" y="0px"
	 viewBox="0 0 58 46.007" style="enable-background:new 0 0 58 46.007;" xml:space="preserve">
<style type="text/css">
	.st0{fill:#333333;}
</style>
<g>
	<g>
		<path class="st0" d="M35.533,38.628c-0.442,0-0.802-0.36-0.802-0.802c0-0.442,0.36-0.802,0.802-0.802h12.036
			c4.867,0,8.826-3.959,8.826-8.826s-3.959-8.826-8.826-8.826c-1.204,0-2.373,0.239-3.473,0.71c-0.1,0.043-0.207,0.065-0.316,0.065
			c-0.147,0-0.292-0.041-0.418-0.117c-0.221-0.135-0.364-0.37-0.383-0.628c-0.608-8.555-7.81-15.256-16.396-15.256
			c-9.064,0-16.439,7.374-16.439,16.439c0,0.649,0.04,1.311,0.118,1.965l0.026,0.221l0.212,0.067c3.333,1.045,5.66,4.216,5.66,7.71
			c0,0.442-0.36,0.802-0.802,0.802s-0.802-0.36-0.802-0.802c0-3.056-2.169-5.723-5.157-6.341c-0.434-0.09-0.878-0.135-1.32-0.135
			c-3.571,0-6.476,2.905-6.476,6.476s2.905,6.476,6.476,6.476h16.994c0.442,0,0.802,0.36,0.802,0.802
			c0,0.442-0.36,0.802-0.802,0.802H8.081C3.625,38.628,0,35.003,0,30.547s3.625-8.081,8.081-8.081c0.058,0,0.115,0.001,0.173,0.002
			l0.382,0.008l-0.032-0.38c-0.042-0.501-0.063-1.01-0.063-1.511c0-9.949,8.094-18.044,18.044-18.044
			c4.593,0,8.969,1.727,12.322,4.863c0.141,0.132,0.288,0.274,0.449,0.436l0.191,0.192l0.231-0.141
			c1.445-0.882,3.11-1.348,4.816-1.348c5.119,0,9.285,4.165,9.285,9.285c0,1.133-0.206,2.248-0.613,3.314l-0.097,0.255l0.226,0.153
			C56.278,21.497,58,24.73,58,28.198c0,5.752-4.679,10.431-10.431,10.431H35.533z M47.569,17.767c1.326,0,2.619,0.247,3.843,0.734
			l0.336,0.134l0.117-0.342c0.271-0.795,0.408-1.624,0.408-2.465c0-4.235-3.445-7.68-7.68-7.68c-1.282,0-2.498,0.303-3.613,0.902
			l-0.358,0.192l0.249,0.321c1.864,2.41,3.091,5.274,3.549,8.283l0.058,0.381l0.372-0.1c0.88-0.238,1.794-0.358,2.718-0.358H47.569z
			"/>
	</g>
	<g>
		<path class="st0" d="M30.413,38.629c-0.211,0-0.418-0.086-0.567-0.235c-0.149-0.15-0.235-0.357-0.235-0.567
			c0-0.211,0.086-0.418,0.235-0.567c0.149-0.15,0.355-0.235,0.567-0.235c0.212,0,0.419,0.086,0.568,0.235
			c0.149,0.149,0.234,0.356,0.234,0.567c0,0.212-0.085,0.419-0.234,0.567C30.832,38.543,30.624,38.629,30.413,38.629z"/>
	</g>
	<g>
		<path class="st0" d="M53.613,7.61c-0.214,0-0.416-0.083-0.568-0.235c-0.313-0.313-0.313-0.822,0-1.135l3.525-3.525
			c0.152-0.152,0.353-0.235,0.568-0.235s0.416,0.083,0.567,0.235c0.313,0.313,0.313,0.822,0,1.135L54.18,7.375
			C54.028,7.527,53.827,7.61,53.613,7.61z"/>
	</g>
	<g>
		<path class="st0" d="M44.593,4.085c-0.442,0-0.802-0.36-0.802-0.802v-2.48C43.791,0.36,44.151,0,44.593,0
			c0.442,0,0.802,0.36,0.802,0.802v2.48C45.396,3.725,45.036,4.085,44.593,4.085z"/>
	</g>
	<g>
		<path class="st0" d="M56.641,16.629c-0.442,0-0.802-0.36-0.802-0.802s0.36-0.802,0.802-0.802h0.557
			c0.442,0,0.802,0.36,0.802,0.802s-0.36,0.802-0.802,0.802H56.641z"/>
	</g>
	<g>
		<g>
			<path class="st0" d="M43.611,45.045c-0.214,0-0.416-0.084-0.567-0.235c-0.309-0.309-0.313-0.809-0.012-1.123l0.284-0.228
				l0.013-0.013c0.152-0.152,0.353-0.235,0.567-0.235c0.214,0,0.416,0.083,0.567,0.235c0.309,0.309,0.313,0.809,0.012,1.123
				l-0.284,0.228l-0.013,0.013C44.026,44.962,43.825,45.045,43.611,45.045z"/>
		</g>
		<g>
			<path class="st0" d="M28.557,45.045c-0.214,0-0.416-0.084-0.567-0.235c-0.152-0.152-0.235-0.353-0.235-0.567
				c0-0.209,0.079-0.405,0.223-0.555l0.284-0.228l0.013-0.013c0.152-0.152,0.353-0.235,0.567-0.235c0.214,0,0.416,0.083,0.567,0.235
				c0.152,0.152,0.235,0.353,0.235,0.567c0,0.209-0.079,0.405-0.223,0.555l-0.284,0.229l-0.013,0.013
				C28.973,44.962,28.771,45.045,28.557,45.045z"/>
		</g>
		<g>
			<path class="st0" d="M14.104,45.045c-0.214,0-0.416-0.084-0.567-0.235c-0.152-0.152-0.235-0.353-0.235-0.567
				c0-0.209,0.079-0.405,0.223-0.555l0.284-0.228l0.013-0.013c0.152-0.152,0.353-0.235,0.567-0.235c0.214,0,0.416,0.083,0.567,0.235
				c0.152,0.152,0.235,0.353,0.235,0.567c0,0.209-0.079,0.405-0.223,0.555l-0.284,0.228l-0.013,0.013
				C14.52,44.962,14.318,45.045,14.104,45.045z"/>
		</g>
	</g>
	<g>
		<g>
			<path class="st0" d="M4.953,46.007c-0.214,0-0.416-0.084-0.567-0.235C4.234,45.62,4.15,45.419,4.15,45.205
				c0-0.214,0.083-0.416,0.235-0.567l3.506-3.506c0.152-0.152,0.353-0.235,0.567-0.235c0.214,0,0.416,0.083,0.567,0.235
				c0.313,0.313,0.313,0.822,0,1.135L5.52,45.772C5.368,45.923,5.167,46.007,4.953,46.007z"/>
		</g>
		<g>
			<path class="st0" d="M34.739,45.947c-0.214,0-0.416-0.084-0.567-0.235c-0.152-0.151-0.235-0.353-0.235-0.567
				s0.084-0.416,0.235-0.567l3.446-3.446c0.152-0.152,0.353-0.235,0.567-0.235c0.214,0,0.416,0.083,0.567,0.235
				c0.313,0.313,0.313,0.822,0,1.135l-3.446,3.446C35.154,45.863,34.953,45.947,34.739,45.947z"/>
		</g>
		<g>
			<path class="st0" d="M20.523,45.947c-0.214,0-0.416-0.084-0.567-0.235c-0.152-0.151-0.235-0.353-0.235-0.567
				s0.083-0.416,0.235-0.567l3.446-3.446c0.152-0.152,0.353-0.235,0.567-0.235c0.214,0,0.416,0.083,0.567,0.235
				c0.313,0.313,0.313,0.822,0,1.135l-3.446,3.446C20.939,45.863,20.738,45.947,20.523,45.947z"/>
		</g>
		<g>
			<path class="st0" d="M49.64,45.908c-0.214,0-0.416-0.084-0.567-0.235c-0.152-0.152-0.235-0.353-0.235-0.567
				c0-0.214,0.084-0.416,0.235-0.567l3.407-3.407c0.152-0.151,0.353-0.235,0.567-0.235c0.214,0,0.416,0.084,0.567,0.235
				c0.313,0.313,0.313,0.822,0,1.135l-3.407,3.407C50.056,45.824,49.855,45.908,49.64,45.908z"/>
		</g>
	</g>
	<g>
		<g>
			<path class="st0" d="M26.584,9.353c-0.442,0-0.802-0.36-0.802-0.802c0-0.442,0.36-0.802,0.802-0.802h0.034
				c0.44,0.003,0.798,0.365,0.795,0.807c-0.003,0.44-0.363,0.797-0.802,0.797H26.584z"/>
		</g>
		<g>
			<path class="st0" d="M38.183,20.147c-0.418,0-0.769-0.328-0.799-0.746c-0.287-4.033-2.773-7.542-6.49-9.157
				c-0.406-0.176-0.592-0.65-0.416-1.056c0.128-0.293,0.417-0.483,0.737-0.483c0.11,0,0.217,0.022,0.319,0.067
				c4.267,1.854,7.122,5.883,7.451,10.515c0.031,0.441-0.302,0.826-0.744,0.857C38.221,20.146,38.202,20.147,38.183,20.147z"/>
		</g>
	</g>
</g>
</svg>
