<?xml version="1.0" encoding="utf-8"?>
<!-- Generator: Adobe Illustrator 22.0.1, SVG Export Plug-In . SVG Version: 6.00 Build 0)  -->
<svg version="1.1" id="Capa_1" xmlns="http://www.w3.org/2000/svg" xmlns:xlink="http://www.w3.org/1999/xlink" x="0px" y="0px"
	 viewBox="0 0 56 56" style="enable-background:new 0 0 56 56;" xml:space="preserve">
<style type="text/css">
	.st0{fill:#333333;}
</style>
<g>
	<circle class="st0" cx="36.9" cy="50.8" r="0.8"/>
</g>
<g>
	<path class="st0" d="M19.1,51.6c-0.4,0-0.8-0.3-0.8-0.8s0.3-0.8,0.8-0.8h13.3c0.4,0,0.8,0.3,0.8,0.8s-0.3,0.8-0.8,0.8H19.1z"/>
</g>
<g>
	<path class="st0" d="M19.1,21.5c-0.4,0-0.8-0.3-0.8-0.8c0-0.4,0.3-0.8,0.8-0.8h17.7c0.4,0,0.8,0.3,0.8,0.8c0,0.4-0.3,0.8-0.8,0.8
		H19.1z"/>
</g>
<g>
	<path class="st0" d="M19.1,14.8c-0.4,0-0.8-0.3-0.8-0.8c0-0.4,0.3-0.8,0.8-0.8h17.7c0.4,0,0.8,0.3,0.8,0.8c0,0.4-0.3,0.8-0.8,0.8
		H19.1z"/>
</g>
<g>
	<path class="st0" d="M19.1,28.1c-0.4,0-0.8-0.3-0.8-0.8c0-0.4,0.3-0.8,0.8-0.8H28c0.4,0,0.8,0.3,0.8,0.8c0,0.4-0.3,0.8-0.8,0.8
		H19.1z"/>
</g>
<g>
	<path class="st0" d="M3,56c-1.6,0-3-1.3-3-3l0-31.2c0-0.2,0.1-0.4,0.3-0.6l0,0l11.4-8.8v-5c0-0.4,0.3-0.8,0.8-0.8h6.3l7.3-6
		C26.6,0.2,27.3,0,28,0s1.4,0.2,1.9,0.7l7.3,6h6.3c0.4,0,0.8,0.3,0.8,0.8v5l11.4,8.8c0,0,0,0,0,0c0.2,0.1,0.3,0.4,0.3,0.6L56,53
		c0,1.6-1.3,3-3,3H3z M2.9,54.5h50.3l-17-16.5l-6.3,5c-0.5,0.4-1.2,0.7-1.9,0.7c-0.7,0-1.4-0.2-1.9-0.7l-6.3-5L2.9,54.5z M37.4,37
		l17,16.6V23.4L37.4,37z M1.5,53.6l17-16.6l-17-13.6V53.6z M13.3,30.8l13.8,11c0.3,0.2,0.6,0.3,0.9,0.3c0.3,0,0.7-0.1,0.9-0.3
		l13.8-11V8.2H13.3V30.8z M44.3,29.5l9.7-7.7l-9.7-7.5V29.5z M2,21.8l9.7,7.7V14.3L2,21.8z M28,1.5c-0.3,0-0.7,0.1-0.9,0.3l-5.8,4.8
		h13.5l-5.8-4.8C28.7,1.7,28.3,1.5,28,1.5z"/>
</g>
</svg>
