<?xml version="1.0" encoding="utf-8"?>
<!-- Generator: Adobe Illustrator 22.0.1, SVG Export Plug-In . SVG Version: 6.00 Build 0)  -->
<svg version="1.1" id="Capa_1" xmlns="http://www.w3.org/2000/svg" xmlns:xlink="http://www.w3.org/1999/xlink" x="0px" y="0px"
	 viewBox="0 0 54.217 58" style="enable-background:new 0 0 54.217 58;" xml:space="preserve">
<style type="text/css">
	.st0{fill:#333333;}
</style>
<g>
	<path class="st0" d="M27.109,44.197c-10.345,0-19.931-4.684-26.301-12.851c-1.077-1.381-1.077-3.31,0-4.691
		c6.37-8.167,15.956-12.851,26.301-12.851c7.687,0,15.188,2.679,21.121,7.544c0.328,0.269,0.653,0.546,0.965,0.822
		c0.144,0.128,0.23,0.304,0.242,0.496c0.012,0.192-0.052,0.378-0.18,0.522c-0.137,0.155-0.334,0.243-0.54,0.243
		c-0.176,0-0.346-0.064-0.478-0.181c-0.305-0.27-0.616-0.535-0.924-0.787c-2.493-2.044-5.285-3.695-8.298-4.906l-0.77,1.119
		c2.616,2.819,4.057,6.486,4.057,10.324c0,3.855-1.453,7.534-4.092,10.359l0.767,1.121c5.205-2.082,9.802-5.547,13.292-10.022
		c0.669-0.859,0.669-2.058,0-2.917c-0.245-0.314-0.188-0.768,0.125-1.012c0.128-0.1,0.281-0.152,0.443-0.152
		c0.224,0,0.432,0.101,0.569,0.278c1.077,1.381,1.077,3.31,0,4.691C47.04,39.513,37.454,44.197,27.109,44.197z M27.094,15.246
		c-7.577,0.01-13.739,6.18-13.739,13.754s6.162,13.744,13.736,13.754h0.034c7.576-0.01,13.739-6.18,13.739-13.754
		c0-7.576-6.164-13.746-13.74-13.754l-0.017,0L27.094,15.246z M15.234,17.521c-5.205,2.082-9.8,5.547-13.289,10.021
		c-0.67,0.859-0.67,2.058,0,2.916c3.489,4.474,8.084,7.939,13.289,10.021l0.767-1.121c-2.637-2.825-4.089-6.503-4.089-10.358
		c0-3.854,1.452-7.533,4.089-10.358L15.234,17.521z"/>
</g>
<g>
	<path class="st0" d="M27.109,34.317c-2.932,0-5.317-2.385-5.317-5.317s2.385-5.317,5.317-5.317s5.317,2.385,5.317,5.317
		S30.041,34.317,27.109,34.317z M27.109,25.125c-2.137,0-3.875,1.738-3.875,3.875s1.738,3.875,3.875,3.875s3.875-1.738,3.875-3.875
		S29.245,25.125,27.109,25.125z"/>
</g>
<g>
	<path class="st0" d="M27.109,6.757c-0.398,0-0.721-0.324-0.721-0.721V0.721C26.388,0.324,26.711,0,27.109,0
		s0.721,0.324,0.721,0.721v5.314C27.83,6.433,27.506,6.757,27.109,6.757z"/>
</g>
<g>
	<path class="st0" d="M27.109,58c-0.398,0-0.721-0.324-0.721-0.721v-5.314c0-0.398,0.324-0.721,0.721-0.721s0.721,0.324,0.721,0.721
		v5.314C27.83,57.676,27.506,58,27.109,58z"/>
</g>
<g>
	<path class="st0" d="M44.461,12.369c-0.193,0-0.374-0.075-0.51-0.211c-0.281-0.281-0.281-0.739,0-1.02l2.644-2.644
		c0.136-0.136,0.318-0.211,0.51-0.211c0.193,0,0.374,0.075,0.51,0.211c0.281,0.281,0.281,0.739,0,1.02l-2.644,2.644
		C44.834,12.294,44.653,12.369,44.461,12.369z"/>
</g>
<g>
	<path class="st0" d="M7.113,49.717c-0.193,0-0.374-0.075-0.51-0.211c-0.281-0.281-0.281-0.739,0-1.02l2.644-2.644
		c0.136-0.136,0.317-0.211,0.51-0.211c0.193,0,0.374,0.075,0.51,0.211c0.281,0.281,0.281,0.739,0,1.02l-2.644,2.644
		C7.486,49.642,7.305,49.717,7.113,49.717z"/>
</g>
<g>
	<path class="st0" d="M9.757,12.369c-0.193,0-0.374-0.075-0.51-0.211L6.603,9.514c-0.281-0.281-0.281-0.739,0-1.02
		c0.136-0.136,0.317-0.211,0.51-0.211c0.193,0,0.374,0.075,0.51,0.211l2.644,2.644c0.281,0.281,0.281,0.739,0,1.02
		C10.131,12.294,9.95,12.369,9.757,12.369z"/>
</g>
<g>
	<path class="st0" d="M47.105,49.717c-0.193,0-0.374-0.075-0.51-0.211l-2.644-2.644c-0.281-0.281-0.281-0.739,0-1.02
		c0.136-0.136,0.317-0.211,0.51-0.211c0.193,0,0.374,0.075,0.51,0.211l2.644,2.644c0.136,0.136,0.211,0.317,0.211,0.51
		c0,0.193-0.075,0.374-0.211,0.51C47.479,49.642,47.297,49.717,47.105,49.717z"/>
</g>
</svg>
