<?xml version="1.0" encoding="utf-8"?>
<!-- Generator: Adobe Illustrator 22.0.1, SVG Export Plug-In . SVG Version: 6.00 Build 0)  -->
<svg version="1.1" id="Capa_1" xmlns="http://www.w3.org/2000/svg" xmlns:xlink="http://www.w3.org/1999/xlink" x="0px" y="0px"
	 viewBox="0 0 55 55" style="enable-background:new 0 0 55 55;" xml:space="preserve">
<style type="text/css">
	.st0{fill:#333333;}
</style>
<g>
	<g>
		<path class="st0" d="M27.5,42.336c-0.42,0-0.761-0.341-0.761-0.761v-0.013c0-0.424,0.341-0.765,0.761-0.765
			c0.419,0,0.761,0.341,0.761,0.761v0.013C28.261,41.995,27.919,42.336,27.5,42.336z"/>
	</g>
	<g>
		<path class="st0" d="M36.63,55c-0.419,0-0.761-0.341-0.761-0.761V32.88c0-0.419,0.341-0.761,0.761-0.761h6.701l0.629-6.245h-7.33
			c-0.419,0-0.761-0.341-0.761-0.761v-5.165c0-2.109,1.403-2.86,2.715-2.86h5.407v-6.05h-7.339c-7.574,0-8.392,5.924-8.392,8.472
			v5.653c0,0.42-0.341,0.761-0.761,0.761h-5.652v6.196H27.5c0.419,0,0.761,0.341,0.761,0.761v4.185c0,0.419-0.341,0.761-0.761,0.761
			c-0.42,0-0.761-0.341-0.761-0.761v-3.424h-5.652c-0.42,0-0.761-0.341-0.761-0.761v-7.718c0-0.42,0.341-0.761,0.761-0.761h5.652
			v-4.892c0-1.415,0.25-4.13,1.92-6.42c1.189-1.63,3.541-3.573,7.993-3.573h8.1c0.419,0,0.761,0.341,0.761,0.761v7.572
			c0,0.42-0.341,0.761-0.761,0.761h-6.168c-1.07,0-1.194,0.764-1.194,1.339v4.404h7.41c0.215,0,0.42,0.091,0.564,0.25
			c0.144,0.159,0.214,0.373,0.193,0.587l-0.782,7.767c-0.039,0.39-0.365,0.685-0.757,0.685h-6.628v19.837h7.283
			c4.855,0,8.804-3.95,8.804-8.804V10.326c0-4.855-3.95-8.804-8.804-8.804H10.326c-4.855,0-8.804,3.95-8.804,8.804v34.348
			c0,4.855,3.95,8.804,8.804,8.804h16.413v-7.663c0-0.419,0.341-0.761,0.761-0.761c0.419,0,0.761,0.341,0.761,0.761v8.424
			c0,0.419-0.341,0.761-0.761,0.761H10.326C4.632,55,0,50.368,0,44.674V10.326C0,4.632,4.632,0,10.326,0h34.348
			C50.368,0,55,4.632,55,10.326v34.348C55,50.368,50.368,55,44.674,55H36.63z"/>
	</g>
	<g>
		<path class="st0" d="M5.978,21.739c-0.42,0-0.761-0.341-0.761-0.761v-9.076c0-0.42,0.341-0.761,0.761-0.761
			s0.761,0.341,0.761,0.761v9.076C6.739,21.398,6.398,21.739,5.978,21.739z"/>
	</g>
	<g>
		<path class="st0" d="M5.978,26.467c-0.42,0-0.761-0.341-0.761-0.761v-0.013c0-0.42,0.341-0.761,0.761-0.761
			s0.761,0.341,0.761,0.761v0.013C6.739,26.126,6.398,26.467,5.978,26.467z"/>
	</g>
</g>
</svg>
