<?xml version="1.0" encoding="utf-8"?>
<!-- Generator: Adobe Illustrator 22.0.1, SVG Export Plug-In . SVG Version: 6.00 Build 0)  -->
<svg version="1.1" id="Capa_1" xmlns="http://www.w3.org/2000/svg" xmlns:xlink="http://www.w3.org/1999/xlink" x="0px" y="0px"
	 viewBox="0 0 32.1 32.1" style="enable-background:new 0 0 32.1 32.1;" xml:space="preserve">
<style type="text/css">
	.st0{fill:#FEDE33;}
</style>
<g>
	<g>
		<g>
			<path class="st0" d="M16.05,23.532c-0.346,0-0.627,0.281-0.627,0.627c0,0.001,0,0.002,0,0.003c0,0.001,0,0.002,0,0.003v0.005
				c0,0.346,0.281,0.627,0.627,0.627c0.346,0,0.627-0.281,0.627-0.627c0-0.001,0-0.002,0-0.003c0-0.001,0-0.002,0-0.003
				c0-0.001,0-0.002,0-0.003c0-0.001,0-0.002,0-0.003C16.677,23.812,16.396,23.532,16.05,23.532z"/>
		</g>
	</g>
	<g>
		<g>
			<path class="st0" d="M25.956,0H6.144C2.756,0,0,2.756,0,6.144v19.812C0,29.344,2.756,32.1,6.144,32.1h9.906
				c0.346,0,0.627-0.281,0.627-0.627v-4.859c0-0.346-0.281-0.627-0.627-0.627c-0.346,0-0.627,0.281-0.627,0.627v4.232H6.144
				c-2.696,0-4.89-2.194-4.89-4.89V6.144c0-2.696,2.194-4.89,4.89-4.89h19.812c2.696,0,4.89,2.194,4.89,4.89v19.812
				c0,2.696-2.194,4.89-4.89,4.89h-4.013V19.78h3.635c0.322,0,0.592-0.244,0.624-0.564l0.451-4.48
				c0.018-0.176-0.04-0.352-0.159-0.483s-0.288-0.206-0.465-0.206h-4.086v-2.352c0-0.426,0.136-0.584,0.5-0.584h3.557
				c0.346,0,0.627-0.281,0.627-0.627V6.116c0-0.346-0.281-0.627-0.627-0.627h-4.672c-2.647,0-4.051,1.163-4.763,2.138
				c-0.995,1.364-1.144,2.975-1.144,3.814v2.634h-3.072c-0.346,0-0.627,0.281-0.627,0.627v4.452c0,0.346,0.281,0.627,0.627,0.627
				h3.072v1.787c0,0.346,0.281,0.627,0.627,0.627c0.346,0,0.627-0.281,0.627-0.627v-2.414c0-0.346-0.281-0.627-0.627-0.627h-3.072
				v-3.198h3.072c0.346,0,0.627-0.281,0.627-0.627v-3.261c0-1.413,0.453-4.698,4.652-4.698h4.045v3.113h-2.931
				c-0.809,0-1.754,0.481-1.754,1.838v2.979c0,0.346,0.281,0.627,0.627,0.627h4.02l-0.325,3.226h-3.695
				c-0.346,0-0.627,0.281-0.627,0.627v12.32c0,0.346,0.281,0.627,0.627,0.627h4.639c3.388,0,6.144-2.756,6.144-6.144V6.144
				C32.1,2.756,29.344,0,25.956,0z"/>
		</g>
	</g>
	<g>
		<g>
			<path class="st0" d="M3.636,6.426c-0.346,0-0.627,0.281-0.627,0.627v5.235c0,0.346,0.281,0.627,0.627,0.627
				s0.627-0.281,0.627-0.627V7.053C4.263,6.707,3.983,6.426,3.636,6.426z"/>
		</g>
	</g>
	<g>
		<g>
			<path class="st0" d="M3.636,14.381c-0.346,0-0.627,0.281-0.627,0.627v0.007c0,0.346,0.281,0.627,0.627,0.627
				s0.627-0.281,0.627-0.627v-0.007C4.263,14.662,3.983,14.381,3.636,14.381z"/>
		</g>
	</g>
</g>
</svg>
