<?xml version="1.0" encoding="utf-8"?>
<!-- Generator: Adobe Illustrator 22.0.1, SVG Export Plug-In . SVG Version: 6.00 Build 0)  -->
<svg version="1.1" id="Layer_1" xmlns="http://www.w3.org/2000/svg" xmlns:xlink="http://www.w3.org/1999/xlink" x="0px" y="0px"
	 viewBox="0 0 144 142.39" style="enable-background:new 0 0 144 142.39;" xml:space="preserve">
<style type="text/css">
	.st0{fill:#FFFFFF;}
</style>
<g>
	<g>
		<path class="st0" d="M23.983,142.388C10.759,142.388,0,131.629,0,118.405c0-13.223,10.759-23.983,23.983-23.983
			c13.223,0,23.983,10.759,23.983,23.983C47.966,131.629,37.207,142.388,23.983,142.388z M23.983,109.645
			c-4.83,0-8.76,3.928-8.76,8.76c0,4.832,3.93,8.76,8.76,8.76c4.83,0,8.76-3.928,8.76-8.76
			C32.743,113.574,28.813,109.645,23.983,109.645z M123.345,94.649c-11.604-1.572-21.874,5.227-25.702,15.194H73.658L48.711,77.836
			L68.761,6.636C69.699,3.305,67.197,0,63.736,0h-6.943c-2.338,0-4.391,1.555-5.025,3.805L31.053,77.361
			c-0.739,2.624-0.186,5.437,1.488,7.586l30.183,38.726c1.622,2.081,4.113,3.297,6.751,3.297h28.168
			c3.457,9.002,12.169,15.42,22.374,15.42c14.132,0,25.45-12.289,23.828-26.741C142.638,104.898,134.066,96.102,123.345,94.649z
			 M120.017,127.167c-4.83,0-8.758-3.928-8.758-8.76c0-4.832,3.928-8.76,8.758-8.76c4.83,0,8.76,3.928,8.76,8.76
			C128.777,123.238,124.847,127.167,120.017,127.167z"/>
	</g>
</g>
</svg>
