<?xml version="1.0" encoding="utf-8"?>
<!-- Generator: Adobe Illustrator 22.0.1, SVG Export Plug-In . SVG Version: 6.00 Build 0)  -->
<svg version="1.1" id="Layer_1" xmlns="http://www.w3.org/2000/svg" xmlns:xlink="http://www.w3.org/1999/xlink" x="0px" y="0px"
	 viewBox="0 0 101 30" style="enable-background:new 0 0 101 30;" xml:space="preserve">
<style type="text/css">
	.st0{fill:#FFFFFF;}
</style>
<g>
	<g>
		<g>
			<path class="st0" d="M3.6,29.4c-0.1,0.1-0.3,0.1-0.6,0.1H0.9c-0.3,0-0.5,0-0.7-0.1C0.1,29.3,0,29.1,0,28.8V7.6
				c0-0.9,0.1-1.8,0.4-2.7C0.6,4,1,3.2,1.5,2.6C2.1,1.9,2.8,1.4,3.7,1c0.9-0.4,2-0.6,3.3-0.6h11.4c0.3,0,0.5,0.1,0.6,0.2
				c0.1,0.1,0.1,0.4,0.1,0.7V3c0,0.3,0,0.6-0.1,0.7c-0.1,0.1-0.3,0.2-0.6,0.2H7.1c-1.2,0-2,0.2-2.5,0.7C4,5.1,3.8,5.9,3.8,7v5.8
				h13.1c0.3,0,0.5,0.1,0.6,0.2c0.1,0.1,0.1,0.3,0.1,0.6v1.6c0,0.3,0,0.5-0.1,0.6c-0.1,0.2-0.3,0.2-0.6,0.2H3.8v12.6
				C3.8,29.1,3.7,29.3,3.6,29.4z"/>
			<path class="st0" d="M76.1,14.9c0,4.9-1,8.6-3.1,11.2c-2.1,2.6-5.2,3.9-9.3,3.9c-4.1,0-7.2-1.3-9.2-3.9c-2-2.6-3.1-6.3-3.1-11.1
				c0-2.4,0.3-4.6,0.9-6.4c0.6-1.9,1.5-3.4,2.6-4.7C56,2.6,57.3,1.7,58.8,1s3.2-1,4.9-1c2,0,3.8,0.3,5.4,1c1.6,0.7,2.8,1.7,3.9,3
				c1,1.3,1.8,2.8,2.3,4.7C75.9,10.5,76.1,12.5,76.1,14.9z M72.2,15c0-1.5-0.1-3-0.4-4.4c-0.2-1.4-0.7-2.6-1.3-3.7
				C70,5.9,69.1,5,68,4.4c-1.1-0.6-2.5-1-4.2-1c-1.5,0-2.8,0.3-3.9,0.9c-1.1,0.6-2,1.4-2.7,2.5c-0.7,1.1-1.2,2.3-1.6,3.7
				c-0.3,1.4-0.5,2.9-0.5,4.4c0,1.7,0.1,3.3,0.4,4.7c0.3,1.4,0.7,2.7,1.4,3.7c0.7,1,1.5,1.8,2.6,2.4c1.1,0.6,2.4,0.9,4.1,0.9
				c1.6,0,3-0.3,4.1-1c1.1-0.6,2-1.5,2.6-2.6c0.7-1.1,1.1-2.3,1.4-3.7C72.1,18,72.2,16.5,72.2,15z"/>
			<path class="st0" d="M101,29.4c0,0.1-0.2,0.2-0.4,0.2h-3c-0.3,0-0.5,0-0.7-0.1c-0.1-0.1-0.3-0.2-0.4-0.5l-6.8-11.4L82.9,29
				c-0.1,0.2-0.3,0.4-0.4,0.5c-0.2,0.1-0.4,0.1-0.7,0.1H79c-0.2,0-0.4-0.1-0.4-0.2c0-0.1,0-0.2,0.1-0.4l8.9-14.5L79.2,0.9
				c-0.1-0.1-0.1-0.2,0-0.3c0-0.1,0.2-0.2,0.4-0.2h2.9c0.4,0,0.6,0,0.7,0.1c0.1,0.1,0.3,0.2,0.4,0.5l6.3,10.4L96,1
				c0.1-0.2,0.3-0.4,0.4-0.5c0.2-0.1,0.4-0.1,0.7-0.1h2.7c0.2,0,0.3,0.1,0.4,0.2c0,0.1,0,0.3-0.1,0.4l-8.3,13.5l9,14.5
				C101,29.1,101,29.2,101,29.4z"/>
		</g>
		<path class="st0" d="M24.2,30c-2.7,0-5-2.2-5-5c0-2.7,2.2-5,5-5c2.7,0,5,2.2,5,5C29.1,27.8,26.9,30,24.2,30z M24.2,23.2
			c-1,0-1.8,0.8-1.8,1.8c0,1,0.8,1.8,1.8,1.8c1,0,1.8-0.8,1.8-1.8C26,24,25.2,23.2,24.2,23.2z M44.8,20.1c-2.4-0.3-4.5,1.1-5.3,3.2
			h-5l-5.2-6.7l4.2-14.8c0.2-0.7-0.3-1.4-1-1.4H31c-0.5,0-0.9,0.3-1,0.8l-4.3,15.3c-0.2,0.5,0,1.1,0.3,1.6l6.3,8
			c0.3,0.4,0.9,0.7,1.4,0.7h5.9c0.7,1.9,2.5,3.2,4.7,3.2c2.9,0,5.3-2.6,5-5.6C48.8,22.2,47,20.4,44.8,20.1z M44.1,26.8
			c-1,0-1.8-0.8-1.8-1.8c0-1,0.8-1.8,1.8-1.8c1,0,1.8,0.8,1.8,1.8C45.9,26,45.1,26.8,44.1,26.8z"/>
	</g>
</g>
</svg>
