<?xml version="1.0" encoding="utf-8"?>
<!-- Generator: Adobe Illustrator 22.0.1, SVG Export Plug-In . SVG Version: 6.00 Build 0)  -->
<svg version="1.1" id="Capa_1" xmlns="http://www.w3.org/2000/svg" xmlns:xlink="http://www.w3.org/1999/xlink" x="0px" y="0px"
	 viewBox="0 0 50 50" style="enable-background:new 0 0 50 50;" xml:space="preserve">
<style type="text/css">
	.st0{fill:#333333;}
</style>
<g>
	<path class="st0" d="M0.6,50C0.3,50,0,49.7,0,49.4V33.7c0-1.7,0.9-3.4,2.4-4.2l0.2-0.1v-8c0-4.6,3.7-8.3,8.3-8.3
		c4.2,0,7.7,3.1,8.3,7.3l0.1,0.9l3.1-3.9c0.3-0.4,0.8-0.7,1.4-0.7c0.2,0,0.4,0,0.6,0.1c0.1,0,0.3,0.1,0.4,0.2l0.2,0.1l0.2-0.1
		c0.1-0.1,0.2-0.1,0.4-0.2c0.2-0.1,0.4-0.1,0.6-0.1c0.5,0,1,0.2,1.4,0.7l5.2,6.6v-2.6c0-3.5,2.8-6.3,6.3-6.3c3.5,0,6.3,2.8,6.3,6.3
		v2.4c0,1.7-0.6,3.2-1.8,4.4l-0.7,0.7h2.2c2.7,0,4.9,2.2,4.9,4.9v15.7c0,0.3-0.3,0.6-0.6,0.6l-16.5,0c-0.3,0-0.6-0.3-0.6-0.6
		c0-0.1,0-13.1,0-13.1l-1.9-3.4c-0.2-0.3-0.1-0.6,0.2-0.8c0.1-0.1,0.2-0.1,0.3-0.1c0.2,0,0.4,0.1,0.5,0.3l2,3.5
		c0.1,0.1,0.1,0.2,0.1,0.3l0,12.7h11.2l0-13.1c0-0.3,0.3-0.6,0.6-0.6c0.3,0,0.6,0.3,0.6,0.6l0,13.1h3V33.7c0-2.1-1.7-3.7-3.7-3.7
		h-2.9l-2.6,6.5c-0.1,0.2-0.3,0.4-0.6,0.4c-0.2,0-0.5-0.2-0.6-0.4l-2.7-7.2c0,0,0-0.1,0-0.1l0-0.2l-0.2-0.1
		c-0.4-0.3-0.7-0.5-1.1-0.9l0,0c0,0,0,0-0.1-0.1l0,0c-0.2-0.2-0.4-0.5-0.6-0.7l0,0L26.6,18c-0.1-0.2-0.3-0.2-0.4-0.2
		c-0.1,0-0.1,0-0.2,0c-0.2,0.1-0.4,0.3-0.4,0.5v3.6c0,0.1,0,0.2,0.1,0.3l2.4,4.2c0.2,0.3,0.1,0.6-0.2,0.8c-0.1,0.1-0.2,0.1-0.3,0.1
		c-0.2,0-0.4-0.1-0.5-0.3l-2-3.5l-7.3,12.8l0,13.1c0,0.2-0.1,0.3-0.2,0.4c-0.1,0.1-0.3,0.2-0.4,0.2H0.6z M4.7,39.9
		c0.3,0,0.6,0.3,0.6,0.6l0,8.3h11.2l0-12.7c0-0.1,0-0.2,0.1-0.3l7.7-13.6c0-0.1,0.1-0.2,0.1-0.3l0-3.6c0-0.3-0.1-0.5-0.4-0.5
		c-0.1,0-0.1,0-0.2,0c-0.1,0-0.3,0-0.4,0.2l-4.1,5.2l0,0c0,0.1-0.1,0.1-0.1,0.2l0,0l-4.9,6.1l-2.7,6.9c-0.1,0.2-0.3,0.4-0.6,0.4
		c-0.2,0-0.5-0.1-0.6-0.4l-2.6-6.5H4.9c-0.5,0-0.9,0.1-1.4,0.3l0,0l0,0c0,0-0.1,0-0.1,0l0,0l0,0c-1.3,0.6-2.2,1.9-2.2,3.4v15.1h3
		l0-8.3C4.2,40.1,4.4,39.9,4.7,39.9z M11,34.6l2-5l-0.7,0.2c-0.4,0.1-0.8,0.1-1.2,0.1H9.1L11,34.6z M39.1,34.6l1.8-4.7h-1.8
		c0,0,0,0,0,0c-0.4,0-0.8,0-1.2-0.1l-0.7-0.1L39.1,34.6z M11,14.2c-3.9,0-7.1,3.2-7.1,7.1v7.5l0.4-0.1c0.2,0,0.4,0,0.7,0h2.6
		l-0.6-0.7c-0.8-1-1.3-2.2-1.3-3.5v-3.5c0-0.3,0.3-0.6,0.6-0.6h9.5c0.3,0,0.6,0.3,0.6,0.6V25l1.8-2.3v-1.4
		C18.1,17.4,14.9,14.2,11,14.2z M6.8,24.6c0,2.3,1.9,4.1,4.1,4.1c2.3,0,4.1-1.9,4.1-4.1v-2.9H6.8V24.6z M34,23.7c0,1,0.3,2,0.8,2.8
		l0,0l0.5,0.7l0,0c1,1,2.3,1.6,3.7,1.6h0l0,0h0c2.8,0,5-2.3,5-5.1v-1.2l-1.1,0c-0.9,0-1.7-0.5-2.2-1.2l-0.2-0.3l-0.3,0.2
		c-1.2,0.9-2.6,1.4-4.1,1.4H34V23.7z M39.1,16.2c-2.6,0-4.8,2-5.1,4.6l0,0.4h2.2c1.7,0,3.3-0.7,4.3-2c0.1-0.1,0.3-0.2,0.5-0.2
		c0.1,0,0.1,0,0.2,0c0.2,0.1,0.4,0.3,0.4,0.6c0,0.9,0.7,1.5,1.5,1.6l1.1,0l0-0.4C43.9,18.2,41.7,16.2,39.1,16.2z"/>
</g>
<g>
	<path class="st0" d="M29.2,30.3c-0.2,0-0.3-0.1-0.4-0.2c-0.1-0.1-0.2-0.3-0.2-0.4c0-0.2,0.1-0.3,0.2-0.4c0.1-0.1,0.3-0.2,0.4-0.2
		c0.2,0,0.3,0.1,0.4,0.2c0.1,0.1,0.2,0.3,0.2,0.4c0,0.2-0.1,0.3-0.2,0.4C29.5,30.2,29.4,30.3,29.2,30.3z"/>
</g>
<g>
	<path class="st0" d="M4.7,36.8c-0.2,0-0.3-0.1-0.4-0.2c-0.1-0.1-0.2-0.3-0.2-0.4c0-0.2,0.1-0.3,0.2-0.4c0.1-0.1,0.3-0.2,0.4-0.2
		c0.2,0,0.3,0.1,0.4,0.2c0.1,0.1,0.2,0.3,0.2,0.4c0,0.2-0.1,0.3-0.2,0.4C5.1,36.8,4.9,36.8,4.7,36.8z"/>
</g>
<g>
	<path class="st0" d="M25,14.2c-0.1,0-0.2,0-0.3-0.1c-0.1-0.1-1.9-1.3-3.7-3.1c-2.6-2.5-3.8-4.4-3.8-6c0-2.7,2.2-5,4.8-5
		c1,0,2,0.3,2.8,1L25,1.1L25.2,1c0.8-0.6,1.8-1,2.8-1c2.7,0,4.8,2.2,4.8,5c0,1.6-1.3,3.6-3.8,6c-1.8,1.7-3.6,3-3.7,3.1
		C25.2,14.2,25.1,14.2,25,14.2z M21.9,1.2c-2,0-3.6,1.7-3.6,3.8c0,2.7,5.8,7.2,6.5,7.7l0.2,0.2l0.2-0.2c0.7-0.5,6.5-5,6.5-7.7
		c0-2.1-1.6-3.8-3.6-3.8c-1,0-1.9,0.4-2.6,1.2c-0.1,0.1-0.3,0.2-0.4,0.2c-0.2,0-0.3-0.1-0.4-0.2C23.9,1.6,22.9,1.2,21.9,1.2z"/>
</g>
<g>
	<path class="st0" d="M39,27c-0.5,0-0.9-0.2-1.3-0.5c-0.2-0.2-0.2-0.6,0-0.8c0.1-0.1,0.3-0.2,0.4-0.2c0.2,0,0.3,0.1,0.4,0.2
		c0.1,0.1,0.3,0.2,0.4,0.2c0.2,0,0.3-0.1,0.4-0.2c0.1-0.1,0.3-0.2,0.4-0.2c0.2,0,0.3,0.1,0.4,0.2s0.2,0.3,0.2,0.4s-0.1,0.3-0.2,0.4
		C40,26.8,39.5,27,39,27z"/>
</g>
<g>
	<path class="st0" d="M11,27c-0.5,0-0.9-0.2-1.3-0.5c-0.2-0.2-0.2-0.6,0-0.8c0.1-0.1,0.3-0.2,0.4-0.2c0.2,0,0.3,0.1,0.4,0.2
		c0.1,0.1,0.3,0.2,0.4,0.2c0.2,0,0.3-0.1,0.4-0.2c0.1-0.1,0.3-0.2,0.4-0.2c0.2,0,0.3,0.1,0.4,0.2c0.1,0.1,0.2,0.3,0.2,0.4
		s-0.1,0.3-0.2,0.4C11.9,26.8,11.4,27,11,27z"/>
</g>
</svg>
