<?xml version="1.0" encoding="utf-8"?>
<!-- Generator: Adobe Illustrator 22.0.1, SVG Export Plug-In . SVG Version: 6.00 Build 0)  -->
<svg version="1.1" id="Capa_1" xmlns="http://www.w3.org/2000/svg" xmlns:xlink="http://www.w3.org/1999/xlink" x="0px" y="0px"
	 viewBox="0 0 58 58" style="enable-background:new 0 0 58 58;" xml:space="preserve">
<g>
	<g>
		<path d="M3.99,54.598c-1.924,0-3.49-1.566-3.49-3.49v-32.35c0-1.924,1.566-3.49,3.49-3.49h0.338L4.336,5.106
			c0-0.94,0.764-1.704,1.704-1.704h31.049c0.266,0,0.483,0.217,0.483,0.483s-0.217,0.483-0.483,0.483H6.04
			c-0.407,0-0.738,0.331-0.738,0.738V7.62H48.87V5.106c0-0.407-0.331-0.738-0.738-0.738h-5.296c-0.266,0-0.483-0.217-0.483-0.483
			s0.217-0.483,0.483-0.483h5.296c0.94,0,1.704,0.764,1.704,1.704v10.201l0.275,0.052c2.4,0.453,4.141,2.56,4.141,5.011v10.68h0.581
			c1.471,0,2.667,1.196,2.667,2.667v8.208c0,1.471-1.196,2.667-2.667,2.667h-0.581v6.516c0,1.924-1.566,3.49-3.49,3.49H3.99z
			 M1.466,51.108c0,1.392,1.132,2.524,2.524,2.524h46.772c1.392,0,2.524-1.132,2.524-2.524v-1.231H11.378
			c-0.266,0-0.483-0.217-0.483-0.483c0-0.266,0.217-0.483,0.483-0.483h41.908v-4.32h-9.884c-3.733,0-6.771-3.037-6.771-6.771
			c0-3.733,3.037-6.771,6.771-6.771h9.884v-3.319H1.466v21.18h4.056c0.266,0,0.483,0.217,0.483,0.483
			c0,0.266-0.217,0.483-0.483,0.483H1.466V51.108z M43.402,32.016c-3.201,0-5.805,2.604-5.805,5.805s2.604,5.805,5.805,5.805h11.431
			c0.938,0,1.701-0.763,1.701-1.701v-8.207c0-0.938-0.763-1.701-1.701-1.701H43.402z M1.466,21.899v4.867h51.831l-0.015-0.371
			l-0.001-0.04c-0.002-0.041-0.005-0.082-0.009-0.122l-0.002-0.032c-0.001-0.018-0.003-0.037-0.004-0.055
			c-0.006-0.064-0.014-0.128-0.023-0.192c-0.291-1.984-1.942-3.533-3.928-3.691L49.3,22.262c-0.055-0.004-0.107-0.007-0.157-0.01
			l-0.016,0L3.99,22.248c-0.073,0-0.151-0.003-0.245-0.01l-0.057-0.004c-0.089-0.008-0.166-0.017-0.237-0.028l-0.022-0.004
			C3.36,22.191,3.29,22.177,3.213,22.16l-0.052-0.012c-0.081-0.02-0.154-0.04-0.224-0.062l-0.033-0.011
			c-0.065-0.021-0.131-0.045-0.195-0.071l-0.044-0.017c-0.072-0.03-0.142-0.061-0.209-0.094l-0.038-0.019
			c-0.06-0.03-0.12-0.063-0.178-0.097l-0.036-0.021c-0.062-0.037-0.127-0.079-0.191-0.123l-0.022-0.014l-0.532-0.373L1.466,21.899z
			 M49.835,21.348l0.265,0.058c0.988,0.217,1.89,0.712,2.608,1.433l0.577,0.58V20.37c0-1.854-1.243-3.492-3.023-3.984l-0.428-0.118
			V21.348z M42.238,17.729c-1.387,0-2.515,1.128-2.515,2.515c0,0.276,0.045,0.548,0.134,0.81l0.078,0.229h4.606l0.078-0.229
			c0.089-0.261,0.134-0.534,0.134-0.81C44.753,18.857,43.625,17.729,42.238,17.729z M33.852,17.729
			c-1.387,0-2.515,1.128-2.515,2.515c0,0.276,0.045,0.549,0.134,0.81l0.078,0.229h4.606l0.078-0.229
			c0.089-0.261,0.134-0.534,0.134-0.81C36.367,18.857,35.239,17.729,33.852,17.729L33.852,17.729z M3.99,16.235
			c-1.392,0-2.524,1.132-2.524,2.524c0,1.392,1.132,2.524,2.524,2.524h0.338l0.008-0.338v-4.71H3.99z M42.238,16.763
			c1.919,0,3.481,1.561,3.481,3.481c0,0.209-0.02,0.424-0.061,0.639l-0.075,0.4h3.286v-7.998H5.301v7.998h25.205l-0.074-0.4
			c-0.04-0.216-0.061-0.431-0.061-0.639c0-1.919,1.561-3.481,3.481-3.481c1.919,0,3.481,1.561,3.481,3.481
			c0,0.209-0.02,0.424-0.061,0.639l-0.075,0.4h1.695l-0.074-0.4c-0.04-0.216-0.061-0.431-0.061-0.639
			C38.757,18.324,40.319,16.763,42.238,16.763z M5.301,12.318h43.568V8.586H5.301V12.318z"/>
	</g>
	<g>
		<path d="M44.178,41.19c-0.901,0-1.748-0.35-2.383-0.985c-0.636-0.636-0.985-1.482-0.985-2.383c0-0.902,0.35-1.748,0.985-2.383
			c0.636-0.637,1.483-0.987,2.383-0.987c0.9,0,1.747,0.351,2.383,0.987c0.636,0.636,0.985,1.482,0.985,2.383
			c0,0.901-0.35,1.748-0.985,2.383C45.926,40.84,45.079,41.19,44.178,41.19z M44.178,35.417c-0.643,0-1.247,0.25-1.7,0.703
			c-0.937,0.937-0.937,2.463,0,3.401c0.454,0.454,1.058,0.704,1.7,0.704c0.642,0,1.246-0.25,1.7-0.704
			c0.454-0.454,0.703-1.057,0.703-1.7c0-0.643-0.25-1.247-0.703-1.7C45.425,35.667,44.821,35.417,44.178,35.417z"/>
	</g>
</g>
</svg>
