<?xml version="1.0" encoding="utf-8"?>
<!-- Generator: Adobe Illustrator 22.0.1, SVG Export Plug-In . SVG Version: 6.00 Build 0)  -->
<svg version="1.1" id="Layer_1" xmlns="http://www.w3.org/2000/svg" xmlns:xlink="http://www.w3.org/1999/xlink" x="0px" y="0px"
	 viewBox="0 0 40 38" style="enable-background:new 0 0 40 38;" xml:space="preserve">
<style type="text/css">
	.st0{fill:#333333;}
</style>
<path class="st0" d="M29.6,7c1.6,0.6,2.8,1.8,3.4,3.4c0.2,0.5,0.6,0.7,1,0.7c0.1,0,0.2,0,0.4-0.1c0.6-0.2,0.9-0.8,0.7-1.4
	c-0.8-2.2-2.5-4-4.7-4.8C29.8,4.7,29.2,5,29,5.6C28.8,6.2,29.1,6.8,29.6,7L29.6,7z M29.6,7"/>
<path class="st0" d="M19.5,37.9C19.6,38,19.8,38,20,38c0.2,0,0.4,0,0.5-0.1C33.2,30.9,40,19.5,40,12.3C40,5.5,34.5,0,27.8,0
	C23,0,18.7,2.8,16.7,7.1c-0.3,0.6,0,1.2,0.5,1.5c0.6,0.3,1.2,0,1.5-0.5c1.6-3.5,5.2-5.8,9.1-5.8c5.5,0,10,4.5,10,10.1
	c0,6.6-6.6,17-17.8,23.3C8.9,29.3,2.2,18.9,2.2,12.3c0-5.5,4.5-10.1,10-10.1c1.4,0,2.7,0.3,4,0.8c0.6,0.2,1.2,0,1.5-0.6
	c0.2-0.6,0-1.2-0.6-1.5c-1.5-0.7-3.2-1-4.9-1C5.5,0,0,5.5,0,12.3C0,19.5,6.8,30.9,19.5,37.9L19.5,37.9z M19.5,37.9"/>
<g>
	<g>
		<path class="st0" d="M35.3,12.9c-0.2-0.2-0.5-0.3-0.8-0.3s-0.6,0.1-0.8,0.3s-0.3,0.5-0.3,0.8s0.1,0.6,0.3,0.8
			c0.2,0.2,0.5,0.3,0.8,0.3s0.6-0.1,0.8-0.3c0.2-0.2,0.3-0.5,0.3-0.8S35.5,13.1,35.3,12.9z"/>
	</g>
</g>
</svg>
