<?xml version="1.0" encoding="utf-8"?>
<!-- Generator: Adobe Illustrator 22.0.1, SVG Export Plug-In . SVG Version: 6.00 Build 0)  -->
<svg version="1.1" id="Capa_1" xmlns="http://www.w3.org/2000/svg" xmlns:xlink="http://www.w3.org/1999/xlink" x="0px" y="0px"
	 viewBox="0 0 50 59" style="enable-background:new 0 0 50 59;" xml:space="preserve">
<style type="text/css">
	.st0{fill:#333333;}
</style>
<g>
	<path class="st0" d="M21.6,58.5c0-0.2,0-0.4,0.1-0.5c0.1-0.2,0.2-0.3,0.4-0.3l1.4-0.3l-1.4-5.6l-0.5,0.1c-0.2,0.1-0.5,0.1-0.7,0.1
		c-0.5,0-1.1-0.1-1.5-0.4c-0.7-0.4-1.2-1.1-1.4-1.8l-0.6-2.5c-0.1-0.4-0.1-0.8,0-1.3l0-0.2l-4.1-4.1l-0.2,0c-0.1,0-0.2,0-0.3,0
		c-0.2,0-0.3,0-0.5,0l-8.3-1.6c-1.1-0.2-2-1.1-2.1-2.3L0.2,26.5C-0.2,23.2,0,19.9,1,16.7c0.9-3,2.4-5.8,4.5-8.3C7.5,6,10,4,12.8,2.6
		c3-1.5,6.1-2.3,9.5-2.4L28.1,0c0.2,0,0.5,0,0.7,0c4,0,7.8,1.1,11.2,3.2c3.6,2.2,6.4,5.5,8.1,9.3l1.5,3.3c0.5,1,0.4,2.2,0,3.2
		c-0.5,1-1.4,1.8-2.4,2.1l-12.4,3.5l-1.2,4.5c-0.4,1.5-1.7,2.5-3.3,2.5c-0.1,0-0.1,0-0.2,0l-0.6,0l-2,11.1l0.2,0.2
		c0.4,0.4,0.7,0.9,0.8,1.4l0.6,2.5c0.2,0.8,0.1,1.6-0.3,2.3c-0.3,0.5-0.7,0.8-1.1,1.1l-0.3,0.2l1.4,5.6l1.6-0.4c0.1,0,0.1,0,0.2,0
		c0.3,0,0.6,0.2,0.7,0.5c0.1,0.4-0.1,0.8-0.5,0.9l-2.3,0.6l-3.9,1c0,0-0.1,0-0.1,0l0,0L22.5,59c-0.1,0-0.1,0-0.2,0
		C22,59,21.7,58.8,21.6,58.5z M26,50.7l-2.6,0.7l1.4,5.6l2.6-0.6L26,50.7z M21.2,50.4l5.4-1.4c0.2-0.1,0.4-0.2,0.6-0.3
		c0.1-0.1,0.3-0.3,0.4-0.4c0.2-0.4,0.3-0.8,0.2-1.2l-0.6-2.5c-0.2-0.7-0.8-1.2-1.5-1.2c-0.1,0-0.2,0-0.3,0c0,0,0,0,0,0l-5.4,1.4
		c-0.1,0-0.2,0.1-0.3,0.1c-0.3,0.1-0.5,0.3-0.7,0.6c-0.2,0.4-0.3,0.8-0.2,1.2l0.6,2.5c0.2,0.7,0.8,1.2,1.5,1.2
		C21,50.5,21.1,50.4,21.2,50.4L21.2,50.4z M15.4,38.5l-0.3,1.2c-0.1,0.3-0.2,0.6-0.3,0.8l-0.2,0.3l3.5,3.5l0.3-0.3
		c0.3-0.2,0.7-0.4,1-0.5l0.8-0.2L15.4,38.5z M15.8,36.7l-0.1,0.3l6.2,6.2l2.2-11.8l-1-0.1c-0.1,0-0.2,0-0.3,0
		C19.5,31.2,16.6,33.5,15.8,36.7z M25.8,42l0.4,0l1.9-10.6l-2.6-0.1l-2,11.1l1.5-0.4c0.2-0.1,0.5-0.1,0.7-0.1
		C25.7,42,25.8,42,25.8,42z M23.2,29.9l7,0.4c0,0,0.1,0,0.1,0c0.9,0,1.7-0.6,1.9-1.5l1.3-4.9c0.1-0.2,0.3-0.4,0.5-0.5l12.8-3.6
		c0.7-0.2,1.2-0.7,1.5-1.3c0.3-0.6,0.3-1.4,0-2l-0.5-1.1L34,19.4c-0.1,0-0.1,0-0.2,0c-0.3,0-0.6-0.2-0.7-0.5c-0.1-0.2,0-0.4,0.1-0.5
		c0.1-0.2,0.2-0.3,0.4-0.3l13.7-4l-0.4-0.9C45.5,9.9,43.2,7,40.3,5L40,4.8L39.8,5c-2.2,1.2-10.3,5.4-19.3,7.2c0,0-0.1,0-0.1,0
		c-0.3,0-0.6-0.2-0.7-0.6c0-0.2,0-0.4,0.1-0.5c0.1-0.2,0.3-0.3,0.4-0.3c7.4-1.5,14.3-4.7,17.7-6.4L38.7,4l-0.8-0.4
		c-2.8-1.4-5.9-2.2-9-2.2c-0.2,0-0.5,0-0.7,0l-5.8,0.2c-6.1,0.2-11.9,3-15.8,7.7c-3.3,3.9-5.1,8.8-5.1,13.9l0,0.3l0.2,0.1
		c3,1.7,6.4,1.9,6.4,1.9c0.4,0,0.7,0.4,0.6,0.8C8.7,26.7,8.4,27,8,27c0,0,0,0-0.1,0c-0.1,0-2.9-0.2-5.7-1.5l-0.8-0.3l0.1,0.9
		c0,0.1,0,0.1,0,0.2l1.5,11.2c0.1,0.5,0.5,1,1,1.1l8.3,1.6c0.1,0,0.1,0,0.2,0c0.5,0,0.9-0.3,1-0.8l0.7-3c0.1-0.4,0.2-0.9,0.4-1.3
		c1.3-3.2,4.4-5.3,7.9-5.3C22.9,29.8,23,29.8,23.2,29.9z"/>
</g>
<g>
	<path class="st0" d="M24.2,24.7c0-1.7,1.4-3.1,3.1-3.1c1.7,0,3.1,1.4,3.1,3.1c0,1.7-1.4,3.1-3.1,3.1C25.6,27.8,24.2,26.4,24.2,24.7
		z M25.6,24.7c0,0.9,0.7,1.7,1.7,1.7c0.9,0,1.7-0.7,1.7-1.7c0-0.9-0.7-1.7-1.7-1.7C26.4,23.1,25.6,23.8,25.6,24.7z"/>
</g>
<g>
	<path class="st0" d="M8.2,36.5c-1.2-0.4-2.1-1.6-2.1-2.9c0-1.7,1.4-3,3-3c0,0,0,0,0,0c1.5,0,2.8,1.1,3,2.6c0,0.2,0,0.3,0,0.5
		c0,0.7-0.2,1.3-0.6,1.8c-0.2,0.3-0.5,0.6-0.8,0.8c-0.5,0.3-1,0.5-1.6,0.5C8.8,36.7,8.5,36.6,8.2,36.5z M7.5,33.6
		c0,0.4,0.1,0.7,0.4,1c0.3,0.4,0.8,0.6,1.3,0.6c0.9,0,1.6-0.7,1.6-1.6c0-0.5-0.2-1-0.6-1.3c-0.3-0.2-0.7-0.4-1-0.4
		C8.2,32,7.5,32.7,7.5,33.6z"/>
</g>
<g>
	<path class="st0" d="M15.4,12.9c0,0,0.1,0,0.1,0c0,0,0.1,0,0.1,0c0,0,0.1,0,0.1-0.1c0,0,0.1-0.1,0.1-0.1c0,0,0.1-0.1,0.1-0.1
		c0,0,0-0.1,0.1-0.1c0,0,0-0.1,0-0.1c0-0.1,0-0.1,0-0.1c0,0,0-0.1,0-0.1c0,0,0-0.1,0-0.1c0,0,0-0.1-0.1-0.1c0,0-0.1-0.1-0.1-0.1
		c0,0-0.1-0.1-0.1-0.1c0,0-0.1-0.1-0.1-0.1c0,0-0.1,0-0.1,0c-0.1,0-0.1,0-0.1,0c0,0-0.1,0-0.1,0c0,0-0.1,0-0.1,0c0,0-0.1,0-0.1,0.1
		c0,0-0.1,0.1-0.1,0.1c0,0-0.1,0.1-0.1,0.1c0,0,0,0.1-0.1,0.1c0,0,0,0.1,0,0.1c0,0,0,0.1,0,0.1c0,0,0,0.1,0,0.1c0,0,0,0.1,0,0.1
		c0,0,0,0.1,0.1,0.1c0,0,0.1,0.1,0.1,0.1c0,0,0.1,0.1,0.1,0.1c0,0,0.1,0,0.1,0.1c0,0,0.1,0,0.1,0C15.3,12.9,15.3,12.9,15.4,12.9z"/>
</g>
</svg>
