<?xml version="1.0" encoding="utf-8"?>
<!-- Generator: Adobe Illustrator 22.0.1, SVG Export Plug-In . SVG Version: 6.00 Build 0)  -->
<svg version="1.1" id="Capa_1" xmlns="http://www.w3.org/2000/svg" xmlns:xlink="http://www.w3.org/1999/xlink" x="0px" y="0px"
	 viewBox="0 0 55 55" style="enable-background:new 0 0 55 55;" xml:space="preserve">
<style type="text/css">
	.st0{fill:#333333;}
</style>
<g>
	<path class="st0" d="M33.5,55c-0.5,0-0.9-0.4-0.9-0.9s0.4-0.9,0.9-0.9h7.9c6.5,0,11.7-5.3,11.7-11.7V13.6c0-6.5-5.3-11.7-11.7-11.7
		H13.6C7.1,1.8,1.8,7.1,1.8,13.6v27.9c0,6.5,5.3,11.7,11.7,11.7h8c0.5,0,0.9,0.4,0.9,0.9S22.1,55,21.6,55h-8C6.1,55,0,48.9,0,41.4
		V13.6C0,6.1,6.1,0,13.6,0h27.9C48.9,0,55,6.1,55,13.6v27.9C55,48.9,48.9,55,41.4,55H33.5z"/>
</g>
<g>
	<path class="st0" d="M27.5,55c-0.2,0-0.5-0.1-0.7-0.3c-0.2-0.2-0.3-0.4-0.3-0.7c0-0.2,0.1-0.5,0.3-0.7c0.2-0.2,0.4-0.3,0.7-0.3
		s0.5,0.1,0.7,0.3c0.2,0.2,0.3,0.4,0.3,0.7c0,0.2-0.1,0.5-0.3,0.7C28,54.9,27.7,55,27.5,55z"/>
</g>
<g>
	<path class="st0" d="M15.9,16.2c-0.3,0-0.5-0.1-0.7-0.3c-0.2-0.2-0.3-0.4-0.3-0.7c0-0.2,0.1-0.5,0.3-0.6l0.1-0.1
		c0.2-0.2,0.4-0.2,0.6-0.2c0.3,0,0.5,0.1,0.7,0.3c0.3,0.4,0.3,1,0,1.3l-0.1,0C16.4,16.1,16.2,16.2,15.9,16.2z"/>
</g>
<g>
	<path class="st0" d="M27.5,45.3c-9.8,0-17.8-8-17.8-17.8c0-3.1,0.8-6.1,2.3-8.8c0.2-0.3,0.5-0.5,0.8-0.5c0.2,0,0.3,0,0.5,0.1
		c0.4,0.3,0.6,0.8,0.3,1.3c-1.4,2.4-2.1,5.1-2.1,7.8c0,8.8,7.1,15.9,15.9,15.9s15.9-7.1,15.9-15.9s-7.1-15.9-15.9-15.9
		c-2.6,0-5,0.6-7.3,1.8c-0.1,0.1-0.3,0.1-0.4,0.1c-0.3,0-0.7-0.2-0.8-0.5c-0.2-0.5-0.1-1,0.4-1.2c2.5-1.3,5.3-2,8.1-2
		c9.8,0,17.8,8,17.8,17.8S37.3,45.3,27.5,45.3z"/>
</g>
<g>
	<path class="st0" d="M27.5,38.9c-6.3,0-11.4-5.1-11.4-11.4c0-6.3,5.1-11.4,11.4-11.4c6.3,0,11.4,5.1,11.4,11.4
		C38.9,33.8,33.8,38.9,27.5,38.9z M27.5,17.9c-5.3,0-9.6,4.3-9.6,9.6c0,5.3,4.3,9.6,9.6,9.6c5.3,0,9.6-4.3,9.6-9.6
		C37.1,22.2,32.8,17.9,27.5,17.9z"/>
</g>
<g>
	<path class="st0" d="M44.8,14.8c-2.5,0-4.6-2.1-4.6-4.6s2.1-4.6,4.6-4.6s4.6,2.1,4.6,4.6S47.3,14.8,44.8,14.8z M44.8,7.5
		c-1.5,0-2.8,1.2-2.8,2.8s1.2,2.8,2.8,2.8s2.8-1.2,2.8-2.8S46.3,7.5,44.8,7.5z"/>
</g>
</svg>
