<?xml version="1.0" encoding="utf-8"?>
<!-- Generator: Adobe Illustrator 22.0.1, SVG Export Plug-In . SVG Version: 6.00 Build 0)  -->
<svg version="1.1" id="Capa_1" xmlns="http://www.w3.org/2000/svg" xmlns:xlink="http://www.w3.org/1999/xlink" x="0px" y="0px"
	 viewBox="0 0 28 28" style="enable-background:new 0 0 28 28;" xml:space="preserve">
<style type="text/css">
	.st0{fill:#333333;}
</style>
<g>
	<g>
		<g>
			<g>
				<path class="st0" d="M21,0H7C3.1,0,0,3.1,0,7v14c0,3.9,3.1,7,7,7h4c0.4,0,0.7-0.3,0.7-0.7s-0.3-0.7-0.7-0.7H7
					c-3.1,0-5.7-2.5-5.7-5.7V7c0-3.1,2.5-5.7,5.7-5.7h14c3.1,0,5.7,2.5,5.7,5.7v14c0,3.1-2.5,5.7-5.7,5.7h-4c-0.4,0-0.7,0.3-0.7,0.7
					S16.7,28,17,28h4c3.9,0,7-3.1,7-7V7C28,3.1,24.9,0,21,0z"/>
			</g>
		</g>
	</g>
</g>
<g>
	<g>
		<g>
			<g>
				<path class="st0" d="M14.5,26.9c-0.1-0.1-0.3-0.2-0.5-0.2s-0.3,0.1-0.5,0.2s-0.2,0.3-0.2,0.5s0.1,0.3,0.2,0.5
					c0.1,0.1,0.3,0.2,0.5,0.2s0.3-0.1,0.5-0.2c0.1-0.1,0.2-0.3,0.2-0.5S14.6,27,14.5,26.9z"/>
			</g>
		</g>
	</g>
</g>
<g>
	<g>
		<g>
			<g>
				<path class="st0" d="M8.7,7.4C8.5,7.1,8,7.1,7.8,7.3l0,0C7.5,7.6,7.5,8,7.7,8.3C7.8,8.4,8,8.5,8.2,8.5c0.2,0,0.3-0.1,0.5-0.2
					l0,0C8.9,8.1,9,7.6,8.7,7.4z"/>
			</g>
		</g>
	</g>
</g>
<g>
	<g>
		<g>
			<g>
				<path class="st0" d="M14,4.9c-1.5,0-2.9,0.3-4.2,1C9.5,6.1,9.4,6.5,9.5,6.8c0.2,0.3,0.6,0.5,0.9,0.3c1.1-0.6,2.3-0.9,3.6-0.9
					c4.3,0,7.8,3.5,7.8,7.8s-3.5,7.8-7.8,7.8S6.2,18.3,6.2,14c0-1.3,0.3-2.7,1-3.8C7.4,9.8,7.3,9.4,7,9.3C6.7,9.1,6.3,9.2,6.1,9.5
					c-0.8,1.4-1.2,2.9-1.2,4.5c0,5,4.1,9.1,9.1,9.1s9.1-4.1,9.1-9.1S19,4.9,14,4.9z"/>
			</g>
		</g>
	</g>
</g>
<g>
	<g>
		<g>
			<g>
				<path class="st0" d="M14,8.1c-3.3,0-5.9,2.7-5.9,5.9s2.7,5.9,5.9,5.9s5.9-2.7,5.9-5.9S17.3,8.1,14,8.1z M14,18.6
					c-2.5,0-4.6-2.1-4.6-4.6s2.1-4.6,4.6-4.6s4.6,2.1,4.6,4.6S16.5,18.6,14,18.6z"/>
			</g>
		</g>
	</g>
</g>
<g>
	<g>
		<g>
			<g>
				<path class="st0" d="M22.7,2.8c-1.4,0-2.5,1.1-2.5,2.5s1.1,2.5,2.5,2.5c1.4,0,2.5-1.1,2.5-2.5S24.1,2.8,22.7,2.8z M22.7,6.5
					c-0.7,0-1.2-0.5-1.2-1.2s0.5-1.2,1.2-1.2c0.7,0,1.2,0.5,1.2,1.2S23.3,6.5,22.7,6.5z"/>
			</g>
		</g>
	</g>
</g>
</svg>
