<?xml version="1.0" encoding="utf-8"?>
<!-- Generator: Adobe Illustrator 22.0.1, SVG Export Plug-In . SVG Version: 6.00 Build 0)  -->
<svg version="1.1" id="Capa_1" xmlns="http://www.w3.org/2000/svg" xmlns:xlink="http://www.w3.org/1999/xlink" x="0px" y="0px"
	 viewBox="186.8 376.7 40.2 41" style="enable-background:new 186.8 376.7 40.2 41;" xml:space="preserve">
<style type="text/css">
	.st0{fill:#333333;}
</style>
<path class="st0" d="M210.9,393.1c0.5-0.5,0.5-1.3,0-1.7c-2.6-2.3-5.1-4-8.4-5.8c-0.6-0.3-1.3-0.1-1.6,0.5c-0.3,0.6-0.1,1.3,0.5,1.6
	c3.1,1.8,5.4,3.3,7.9,5.5C209.8,393.5,210.5,393.5,210.9,393.1C210.9,393.1,210.9,393.1,210.9,393.1z"/>
<path class="st0" d="M226.9,416.1c-1.1-3.3-2.4-6.4-4-9.3c0,0,0.1-0.1,0.2-0.2c3.6-4,5.1-9.7,2.4-15.2c-2.4-4.8-7.6-8.8-14.4-11.4
	c-6.6-2.5-14.7-3.7-23.1-3.1c-0.6,0-1.2,0.6-1.1,1.2c0,0.3,0.2,0.6,0.5,0.8c4.3,3.6,5.8,9.1,7.3,14.6c0.9,3.2,1.8,6.4,3.3,9.4
	c0,0,0,0,0,0.1c3.6,6.9,9,9.4,14.2,9.1c2.1-0.1,4.2-0.7,6.1-1.7c1.1-0.6,2.1-1.2,3-1.9c1.3,2.7,2.5,5.5,3.5,8.4
	c0.2,0.6,0.9,0.9,1.5,0.7C226.8,417.3,227.2,416.7,226.9,416.1z M217.7,398.5c-0.6-0.7-0.7-0.9-1.3-1.6c-0.4-0.5-1.2-0.5-1.6-0.1
	c0,0,0,0,0,0c-0.5,0.4-0.5,1.1-0.1,1.6c0.6,0.7,0.7,0.8,1.3,1.5c1.5,2,2.9,4.1,4.2,6.2c-0.9,0.9-1.9,1.6-3,2.1
	c-1.6,0.8-3.3,1.3-5.1,1.4c-4.3,0.3-8.9-1.8-12-7.8v0c-1.3-2.8-2.2-5.9-3.1-9c-1.4-5-2.8-10-6.2-13.9c7.1-0.2,13.9,1,19.5,3.1
	c6.3,2.4,11.1,6,13.2,10.3c2.2,4.4,1.1,8.9-1.7,12.2C220.5,402.4,219.2,400.4,217.7,398.5z"/>
<g>
	<g>
		<path class="st0" d="M213.7,394c-0.2-0.2-0.5-0.3-0.8-0.3s-0.6,0.1-0.8,0.3s-0.3,0.5-0.3,0.8s0.1,0.6,0.3,0.8
			c0.2,0.2,0.5,0.3,0.8,0.3s0.6-0.1,0.8-0.3s0.3-0.5,0.3-0.8S214,394.2,213.7,394z"/>
	</g>
</g>
</svg>
