<?xml version="1.0" encoding="utf-8"?>
<!-- Generator: Adobe Illustrator 22.0.1, SVG Export Plug-In . SVG Version: 6.00 Build 0)  -->
<svg version="1.1" id="Capa_1" xmlns="http://www.w3.org/2000/svg" xmlns:xlink="http://www.w3.org/1999/xlink" x="0px" y="0px"
	 viewBox="181.5 376.5 51 41" style="enable-background:new 181.5 376.5 51 41;" xml:space="preserve">
<style type="text/css">
	.st0{fill:#333333;}
</style>
<path class="st0" d="M206.1,413.4L206.1,413.4c-0.7,0-1.1,0.5-1.1,1s0.4,1,1,1h0.1c0.6,0,1-0.5,1-1S206.7,413.4,206.1,413.4z"/>
<path class="st0" d="M202,413.4L202,413.4c-0.7,0-1.1,0.5-1.1,1s0.4,1,1,1h0.1c0.6,0,1-0.5,1-1S202.6,413.4,202,413.4z"/>
<path class="st0" d="M214.3,413.4L214.3,413.4c-0.7,0-1.1,0.5-1.1,1s0.4,1,1,1h0.1c0.6,0,1-0.5,1-1S214.9,413.4,214.3,413.4z"/>
<path class="st0" d="M210.2,413.4L210.2,413.4c-0.7,0-1.1,0.5-1.1,1s0.4,1,1,1h0.1c0.6,0,1-0.5,1-1S210.8,413.4,210.2,413.4z"/>
<path class="st0" d="M198,413.4L198,413.4c-0.7,0-1.1,0.5-1.1,1s0.4,1,1,1h0.1c0.6,0,1-0.5,1-1S198.5,413.4,198,413.4z"/>
<path class="st0" d="M197.2,387.4c-0.5-0.1-1.1,0.2-1.2,0.7c-0.2,0.7-0.5,1.3-1,1.8c-0.8,0.8-1.9,1.2-2.9,1.1
	c-0.9-0.1-1.7-0.5-2.3-1.1c-0.7-0.7-1.1-1.6-1.1-2.7c0-1,0.4-1.9,1.1-2.7c1.1-1.1,2.7-1.4,4.1-0.8c0.5,0.2,1.1,0,1.3-0.5
	c0.2-0.5,0-1.1-0.5-1.3c-2.2-0.9-4.6-0.5-6.3,1.2c-1.1,1.1-1.7,2.5-1.7,4.1c0,1.5,0.6,3,1.7,4.1c1,1,2.2,1.5,3.5,1.7
	c0.2,0,0.3,0,0.5,0c1.5,0,3-0.6,4-1.7c0.7-0.7,1.3-1.7,1.5-2.7C198.1,388,197.8,387.5,197.2,387.4z"/>
<path class="st0" d="M196,385.9c0.2,0.2,0.4,0.3,0.7,0.3c0.3,0,0.5-0.1,0.7-0.3c0.4-0.4,0.4-1,0-1.4l0,0c-0.4-0.4-1-0.4-1.4,0
	C195.6,384.9,195.6,385.5,196,385.9L196,385.9z"/>
<path class="st0" d="M226.5,387.4c-0.5-0.1-1.1,0.2-1.2,0.7c-0.2,0.7-0.5,1.3-1,1.8c-0.8,0.8-1.9,1.2-2.9,1.1
	c-0.9-0.1-1.7-0.5-2.3-1.1c-1.4-1.5-1.4-3.8,0-5.3c1.1-1.1,2.7-1.4,4.1-0.8c0.5,0.2,1.1,0,1.3-0.5s0-1.1-0.5-1.3
	c-2.2-0.9-4.6-0.5-6.3,1.2c-2.2,2.2-2.2,5.9,0,8.1c1,1,2.2,1.5,3.5,1.7c0.2,0,0.3,0,0.5,0c1.5,0,3-0.6,4-1.7
	c0.7-0.7,1.3-1.7,1.5-2.7C227.3,388,227,387.5,226.5,387.4z"/>
<path class="st0" d="M225.2,385.9c0.2,0.2,0.5,0.3,0.7,0.3c0.3,0,0.5-0.1,0.7-0.3c0.4-0.4,0.4-1,0-1.4l0,0c-0.4-0.4-1-0.4-1.4,0
	C224.8,384.9,224.8,385.5,225.2,385.9L225.2,385.9z"/>
<path class="st0" d="M194.7,411.7c-0.4-0.4-1-0.4-1.4,0L192,413l-1.3-1.3c-0.4-0.4-1-0.4-1.4,0c-0.4,0.4-0.4,1,0,1.4l1.3,1.3
	l-1.3,1.3c-0.4,0.4-0.4,1,0,1.4c0.2,0.2,0.4,0.3,0.7,0.3c0.3,0,0.5-0.1,0.7-0.3l1.3-1.3l1.3,1.3c0.2,0.2,0.4,0.3,0.7,0.3
	c0.3,0,0.5-0.1,0.7-0.3c0.4-0.4,0.4-1,0-1.4l-1.3-1.3l1.3-1.3C195.1,412.8,195.1,412.1,194.7,411.7z"/>
<path class="st0" d="M224.2,411.7c-0.4-0.4-1-0.4-1.4,0l-1.3,1.3l-1.3-1.3c-0.4-0.4-1-0.4-1.4,0c-0.4,0.4-0.4,1,0,1.4l1.3,1.3
	l-1.3,1.3c-0.4,0.4-0.4,1,0,1.4c0.2,0.2,0.5,0.3,0.7,0.3c0.3,0,0.5-0.1,0.7-0.3l1.3-1.3l1.3,1.3c0.2,0.2,0.4,0.3,0.7,0.3
	c0.3,0,0.5-0.1,0.7-0.3c0.4-0.4,0.4-1,0-1.4l-1.3-1.3l1.3-1.3C224.6,412.8,224.6,412.1,224.2,411.7z"/>
<path class="st0" d="M221.6,376.5c-6,0-10.9,4.9-10.9,10.9c0,0.9,0.1,1.8,0.3,2.7c0.3,1.4,0.9,2.7,1.8,3.8l7.9,11.9
	c0.2,0.3,0.5,0.4,0.8,0.4c0.3,0,0.6-0.2,0.8-0.4l7.9-11.9c0,0,0,0,0,0c0.6-0.9,1.4-2.4,1.8-3.8c0.2-0.9,0.3-1.8,0.3-2.7
	C232.5,381.4,227.6,376.5,221.6,376.5z M230.2,389.6c-0.3,1-0.9,2.3-1.5,3.1c0,0,0,0,0,0l-7.1,10.6l-7.1-10.6c0,0,0,0,0,0
	c-0.7-0.9-1.2-2-1.4-3.1c-0.2-0.7-0.3-1.4-0.3-2.2c0-4.9,4-8.9,8.9-8.9s8.9,4,8.9,8.9C230.5,388.2,230.4,388.9,230.2,389.6z"/>
<path class="st0" d="M192.4,376.5c-6,0-10.9,4.9-10.9,10.9c0,0.9,0.1,1.8,0.3,2.7c0.3,1.4,0.9,2.7,1.8,3.8l7.9,11.9
	c0.2,0.3,0.5,0.4,0.8,0.4s0.6-0.2,0.8-0.4l7.9-11.9c0,0,0,0,0,0c0.6-0.9,1.4-2.4,1.8-3.8c0.2-0.9,0.3-1.8,0.3-2.7
	C203.2,381.4,198.3,376.5,192.4,376.5z M201,389.6c-0.3,1-0.9,2.3-1.5,3.1c0,0,0,0,0,0l-7.1,10.6l-7.1-10.6c0,0,0,0,0,0
	c-0.7-0.9-1.2-2-1.4-3.1c-0.2-0.7-0.3-1.4-0.3-2.2c0-4.9,4-8.9,8.9-8.9s8.9,4,8.9,8.9C201.2,388.2,201.1,388.9,201,389.6z"/>
</svg>
