<?xml version="1.0" encoding="utf-8"?>
<!-- Generator: Adobe Illustrator 22.0.1, SVG Export Plug-In . SVG Version: 6.00 Build 0)  -->
<svg version="1.1" id="Capa_1" xmlns="http://www.w3.org/2000/svg" xmlns:xlink="http://www.w3.org/1999/xlink" x="0px" y="0px"
	 viewBox="0 0 45.06 58" style="enable-background:new 0 0 45.06 58;" xml:space="preserve">
<style type="text/css">
	.st0{fill:#333333;}
</style>
<g>
	<g>
		<circle class="st0" cx="32.928" cy="52.454" r="0.578"/>
	</g>
	<g>
		<path class="st0" d="M0.578,58C0.259,58,0,57.741,0,57.422V46.836c0-1.977,0.587-3.885,1.698-5.52
			c1.111-1.635,2.67-2.884,4.508-3.611l9.306-3.684l-0.64-0.623c-2.109-2.052-3.319-4.919-3.319-7.864
			c0-1.181,0.185-2.338,0.55-3.439l0.148-0.447l-0.408-0.235c-0.179-0.103-0.29-0.294-0.29-0.5v-3.677L9.39,12.909l-2.139-1.069
			c-0.197-0.099-0.319-0.296-0.319-0.517V7.856c0-0.249,0.159-0.469,0.395-0.548l3.376-1.125l8.012-6.066
			C18.815,0.042,18.939,0,19.064,0h6.932c0.125,0,0.249,0.042,0.349,0.117l8.012,6.066l3.376,1.125
			c0.236,0.079,0.395,0.299,0.395,0.548v3.466c0,0.22-0.122,0.418-0.319,0.517l-2.139,1.069l-2.164,4.327v3.676
			c0,0.205-0.111,0.397-0.29,0.5l-0.408,0.235l0.148,0.447c0.365,1.103,0.55,2.26,0.55,3.44c0,2.946-1.21,5.813-3.32,7.865
			l-0.64,0.623l9.306,3.683c1.839,0.728,3.398,1.976,4.509,3.611c1.111,1.635,1.699,3.544,1.699,5.521v10.585
			c0,0.319-0.259,0.578-0.578,0.578H0.578z M24.709,56.845h19.196V46.837c0-3.578-2.15-6.741-5.478-8.058l-2.271-0.899
			L24.709,56.845z M19.988,44.906c-0.223,0.297-0.347,0.667-0.347,1.04v7.488l2.059,3.41h1.659l2.059-3.411v-7.487
			c0-0.373-0.123-0.742-0.346-1.04l-2.542-3.39L19.988,44.906z M6.632,38.779c-3.327,1.317-5.476,4.479-5.476,8.057v10.009h19.195
			l-1.878-3.11L8.904,37.88L6.632,38.779z M9.993,37.448l8.493,14.072v-5.574c0-0.622,0.205-1.237,0.578-1.734l2.407-3.21
			l-0.515-0.337c-0.169-0.111-0.327-0.239-0.468-0.38c-0.546-0.546-0.846-1.271-0.846-2.042v-2.111l-0.405-0.127
			c-0.816-0.256-1.602-0.609-2.335-1.048l-0.245-0.147L9.993,37.448z M28.157,34.958c-0.732,0.439-1.517,0.791-2.334,1.047
			l-0.405,0.127v2.111c0,0.978-0.492,1.883-1.315,2.42L23.587,41l2.409,3.213c0.373,0.496,0.578,1.111,0.578,1.733v5.573
			l8.493-14.07l-6.665-2.638L28.157,34.958z M20.797,38.243c0,0.463,0.18,0.898,0.508,1.225c0.327,0.327,0.762,0.508,1.225,0.508
			c0.956,0,1.733-0.777,1.733-1.733v-1.852l-0.635,0.063c-0.37,0.037-0.739,0.056-1.098,0.056s-0.728-0.019-1.098-0.056
			l-0.635-0.063V38.243z M13.193,22.483c-0.321,0.98-0.484,2.007-0.484,3.051c0,3.273,1.622,6.319,4.339,8.149
			c1.007,0.68,2.117,1.16,3.299,1.428c0.708,0.161,1.443,0.242,2.183,0.242c0.74,0,1.475-0.081,2.183-0.242
			c1.174-0.266,2.277-0.742,3.278-1.414l0.055-0.037c2.695-1.833,4.305-4.871,4.305-8.126c0-1.047-0.163-2.075-0.485-3.056
			l-0.18-0.549l-2.393,0.787c-2.192,0.72-4.471,1.085-6.775,1.085c-1.155,0-2.316-0.093-3.453-0.277
			c-1.134-0.183-2.266-0.46-3.365-0.822l-2.326-0.77L13.193,22.483z M12.709,20.432l0.502,0.066
			c0.063,0.008,0.123,0.026,0.178,0.053c0.071,0.035,0.133,0.082,0.184,0.142l0.105,0.122l2.384,0.789
			c1.04,0.343,2.112,0.605,3.186,0.779c1.076,0.174,2.176,0.262,3.269,0.262c2.181,0,4.34-0.346,6.415-1.027l3.419-1.124v-2.816
			H12.709V20.432z M11.325,7.162c-0.05,0.038-0.106,0.067-0.166,0.087L8.087,8.273v2.693l1.991,0.996
			c0.111,0.056,0.203,0.147,0.258,0.258l2.151,4.302h20.083l2.151-4.302c0.056-0.111,0.147-0.203,0.258-0.258l1.991-0.996V8.273
			l-3.071-1.024c-0.06-0.02-0.116-0.049-0.166-0.087l-7.933-6.006h-6.544L11.325,7.162z"/>
	</g>
	<g>
		<path class="st0" d="M22.53,13.056c-2.23,0-4.044-1.814-4.044-4.044S20.3,4.968,22.53,4.968s4.044,1.814,4.044,4.044
			S24.76,13.056,22.53,13.056z M22.53,6.124c-1.593,0-2.888,1.296-2.888,2.888S20.937,11.9,22.53,11.9
			c1.593,0,2.888-1.296,2.888-2.888S24.122,6.124,22.53,6.124z"/>
	</g>
	<g>
		<path class="st0" d="M37.55,53.032c-0.319,0-0.578-0.259-0.578-0.578c0-0.319,0.259-0.578,0.578-0.578h2.311
			c0.319,0,0.578,0.259,0.578,0.578c0,0.319-0.259,0.578-0.578,0.578H37.55z"/>
	</g>
</g>
</svg>
