<?xml version="1.0" encoding="utf-8"?>
<!-- Generator: Adobe Illustrator 22.0.1, SVG Export Plug-In . SVG Version: 6.00 Build 0)  -->
<svg version="1.1" id="Layer_1" xmlns="http://www.w3.org/2000/svg" xmlns:xlink="http://www.w3.org/1999/xlink" x="0px" y="0px"
	 viewBox="0 0 50 50" style="enable-background:new 0 0 50 50;" xml:space="preserve">
<style type="text/css">
	.st0{fill:#333333;}
</style>
<path class="st0" d="M25,50c-6.7,0-13-2.6-17.7-7.3S0,31.7,0,25S2.6,12,7.3,7.3S18.3,0,25,0s13,2.6,17.7,7.3S50,18.3,50,25
	s-2.6,13-7.3,17.7S31.7,50,25,50z M25,1.4C12,1.4,1.4,12,1.4,25S12,48.6,25,48.6S48.6,38,48.6,25S38,1.4,25,1.4z"/>
<path class="st0" d="M42.3,35.7c-0.1,0-0.2,0-0.3-0.1l-3.2-1.8c-0.2-0.1-0.3-0.2-0.3-0.4s0-0.4,0.1-0.5c0.1-0.2,0.3-0.3,0.6-0.3
	c0.1,0,0.2,0,0.3,0.1l2.6,1.5l0.2-0.4c1.2-2.4,1.9-4.9,2-7.6l0,0c0-1,0-2.1,0-2.9c-0.2-2.4-0.9-4.8-2-6.9L42.1,16l-2.6,1.5
	c-0.1,0.1-0.2,0.1-0.3,0.1c-0.2,0-0.5-0.1-0.6-0.3c-0.2-0.3-0.1-0.7,0.3-0.9l3.2-1.8c0.1-0.1,0.2-0.1,0.3-0.1c0.2,0,0.5,0.1,0.6,0.3
	c0,0,0,0,0,0.1l0,0l0,0c1.8,3.1,2.7,6.7,2.7,10.2c0,3.6-0.9,7.1-2.7,10.2l0,0l0,0c0,0,0,0,0,0.1C42.8,35.5,42.6,35.7,42.3,35.7z"/>
<path class="st0" d="M25.4,29.9c-1.3,0-2.5-0.5-3.5-1.4s-1.5-2.2-1.5-3.5c0-2.1,2.8-14.1,3.7-17.8l0.1-0.4c0.1-0.3,0.4-0.6,0.9-0.6
	c0.7,0,0.9,0.5,1,0.8l0,0l0.1,0.2c1,3.6,4.3,15.5,4.3,17.6v0.1C30.5,27.7,28.2,29.9,25.4,29.9C25.5,29.9,25.5,29.9,25.4,29.9z
	 M24.8,10.3c-0.9,3.8-3,13-3,14.7l0,0c0,1,0.4,1.9,1.1,2.6s1.6,1,2.5,1c0,0,0,0,0.1,0c1,0,1.9-0.4,2.6-1.1s1-1.6,1-2.6
	c0-1.6-2.5-10.8-3.5-14.6L24.8,10.3z"/>
<path class="st0" d="M25,9.4c-0.4,0-0.7-0.3-0.7-0.7V5c0-0.4,0.3-0.7,0.7-0.7c0.4,0,0.7,0.3,0.7,0.7v3.7C25.7,9,25.4,9.4,25,9.4z"/>
<path class="st0" d="M5,25.7c-0.4,0-0.7-0.3-0.7-0.7c0-0.4,0.3-0.7,0.7-0.7h3.7c0.4,0,0.7,0.3,0.7,0.7c0,0.4-0.3,0.7-0.7,0.7H5z"/>
<path class="st0" d="M7.7,35.7c-0.2,0-0.5-0.1-0.6-0.3S7,35,7,34.8s0.2-0.3,0.3-0.4l3.2-1.8c0.1-0.1,0.2-0.1,0.3-0.1
	c0.2,0,0.5,0.1,0.6,0.3s0.1,0.3,0.1,0.5s-0.2,0.3-0.3,0.4L8,35.6C7.9,35.6,7.8,35.7,7.7,35.7z"/>
<path class="st0" d="M16.8,11.5c-0.2,0-0.5-0.1-0.6-0.3L14.4,8c-0.1-0.2-0.1-0.3-0.1-0.5s0.2-0.3,0.3-0.4C14.8,7,14.9,7,15,7
	c0.2,0,0.5,0.1,0.6,0.3l1.8,3.2c0.1,0.2,0.1,0.3,0.1,0.5s-0.2,0.3-0.3,0.4C17.1,11.5,17,11.5,16.8,11.5z"/>
<path class="st0" d="M10.9,17.5c-0.1,0-0.2,0-0.3-0.1l-3.2-1.8c-0.2-0.1-0.3-0.2-0.3-0.4s0-0.4,0.1-0.5c0.1-0.2,0.3-0.3,0.6-0.3
	c0.1,0,0.2,0,0.3,0.1l3.2,1.8c0.2,0.1,0.3,0.2,0.3,0.4c0,0.2,0,0.4-0.1,0.5C11.3,17.4,11.1,17.5,10.9,17.5z"/>
<path class="st0" d="M33.2,11.5c-0.1,0-0.2,0-0.3-0.1c-0.2-0.1-0.3-0.2-0.3-0.4s0-0.4,0.1-0.5l1.8-3.2C34.5,7.1,34.8,7,35,7
	c0.1,0,0.2,0,0.3,0.1c0.2,0.1,0.3,0.2,0.3,0.4c0,0.2,0,0.4-0.1,0.5l-1.8,3.2C33.6,11.4,33.4,11.5,33.2,11.5z"/>
<path class="st0" d="M23.3,39.2c-0.4,0-0.7-0.3-0.7-0.7s0.3-0.7,0.7-0.7h7.3c0.4,0,0.7,0.3,0.7,0.7s-0.3,0.7-0.7,0.7H23.3z"/>
<path class="st0" d="M19.4,39.2c-0.4,0-0.7-0.3-0.7-0.7s0.3-0.7,0.7-0.7h0.1c0.4,0,0.7,0.3,0.7,0.7s-0.3,0.7-0.7,0.7H19.4z"/>
</svg>
