<?xml version="1.0" encoding="utf-8"?>
<!-- Generator: Adobe Illustrator 22.0.1, SVG Export Plug-In . SVG Version: 6.00 Build 0)  -->
<svg version="1.1" id="Capa_1" xmlns="http://www.w3.org/2000/svg" xmlns:xlink="http://www.w3.org/1999/xlink" x="0px" y="0px"
	 viewBox="0 0 51 57" style="enable-background:new 0 0 51 57;" xml:space="preserve">
<style type="text/css">
	.st0{fill:#333333;}
</style>
<g>
	<path class="st0" d="M12.7,7.7c-0.2,0-0.4-0.1-0.6-0.2c-0.1-0.1-0.2-0.3-0.2-0.6c0-0.2,0.1-0.4,0.2-0.6c0.1-0.1,0.4-0.2,0.6-0.2
		c0.2,0,0.4,0.1,0.6,0.2c0.1,0.1,0.2,0.4,0.2,0.6c0,0.2-0.1,0.4-0.2,0.6C13.1,7.6,12.9,7.7,12.7,7.7z"/>
</g>
<g>
	<path class="st0" d="M45.2,57c-0.1,0-0.2,0-0.3-0.1c-0.2-0.1-0.3-0.2-0.4-0.4c-0.1-0.2-0.1-0.4,0-0.6l4.3-9.8
		c0.5-1.1,0.7-2.2,0.7-3.3V24.6c0-1.5-1.2-2.7-2.7-2.7s-2.7,1.2-2.7,2.7v10c0,0.3-0.1,0.5-0.3,0.6l-1,0.7c-4.2,2.9-6.7,7.6-6.7,12.7
		v7.6c0,0.4-0.4,0.8-0.8,0.8H13c-3,0-5.4-2.4-5.4-5.3v-4.4l-5-1.5C1.1,45.3,0,43.9,0,42.3c0-1.1,0.4-2,1.3-2.8l0.3-0.3L1.3,39
		C0.5,38.3,0,37.3,0,36.2c0-1.1,0.4-2,1.3-2.8l0.3-0.3L1.3,33C0.5,32.3,0,31.3,0,30.2c0-1.1,0.4-2,1.3-2.8l0.3-0.3L1.3,27
		C0.5,26.3,0,25.3,0,24.2C0,23,0.5,22,1.5,21.3c0.6-0.5,1.4-0.7,2.2-0.7c0.4,0,0.7,0.1,1.1,0.2l2.8,0.9V5.3C7.6,2.4,10,0,13,0h26.5
		c3,0,5.4,2.4,5.4,5.3v15.4l0.5-0.1c0.4-0.1,0.9-0.2,1.4-0.2c2.4,0,4.3,1.9,4.3,4.3v18.2c0,1.4-0.3,2.7-0.8,3.9l-4.3,9.8
		C45.8,56.8,45.5,57,45.2,57z M9.2,51.7c0,2,1.7,3.7,3.8,3.7h21.2v-4.5h-25V51.7z M13,1.6c-2.1,0-3.8,1.7-3.8,3.7v16.8l0.9,0.3
		c1.6,0.5,2.6,1.9,2.6,3.5c0,1.1-0.4,2-1.3,2.8l-0.3,0.3l0.3,0.3c0.8,0.7,1.3,1.7,1.3,2.8c0,1.1-0.4,2-1.3,2.8l-0.3,0.3l0.3,0.3
		c0.8,0.7,1.3,1.7,1.3,2.8c0,1.1-0.4,2-1.3,2.8l-0.3,0.3l0.3,0.3c0.8,0.7,1.3,1.7,1.3,2.8c0,1.2-0.5,2.2-1.5,2.9
		c-0.5,0.4-1.1,0.6-1.7,0.7l-0.3,0v1.8h25v-0.7c0-5.6,2.8-10.8,7.4-14l0.7-0.5v-9.6c0-0.9,0.3-1.8,0.8-2.5l0.1-0.1V7.7H16.7
		c-0.4,0-0.8-0.4-0.8-0.8c0-0.4,0.4-0.8,0.8-0.8h26.5V5.3c0-2-1.7-3.7-3.8-3.7H13z M3.7,40.2c-0.5,0-0.9,0.1-1.3,0.4
		c-0.5,0.4-0.9,1-0.9,1.7c0,0.9,0.6,1.7,1.5,2l5.3,1.6C8.6,45.9,8.8,46,9,46c0.5,0,0.9-0.1,1.3-0.4c0.5-0.4,0.9-1,0.9-1.7
		c0-0.9-0.6-1.7-1.5-2l-5.3-1.6C4.1,40.2,3.9,40.2,3.7,40.2z M3.7,34.2c-0.5,0-0.9,0.1-1.3,0.4c-0.5,0.4-0.9,1-0.9,1.7
		c0,0.9,0.6,1.7,1.5,2l5.3,1.6c0.2,0.1,0.4,0.1,0.6,0.1c0.5,0,0.9-0.1,1.3-0.4c0.5-0.4,0.9-1,0.9-1.7c0-0.9-0.6-1.7-1.5-2l-5.3-1.6
		C4.1,34.2,3.9,34.2,3.7,34.2z M3.7,28.1c-0.5,0-0.9,0.1-1.3,0.4c-0.5,0.4-0.9,1-0.9,1.7c0,0.9,0.6,1.7,1.5,2l5.3,1.6
		c0.2,0.1,0.4,0.1,0.6,0.1c0.5,0,0.9-0.1,1.3-0.4c0.5-0.4,0.9-1,0.9-1.7c0-0.9-0.6-1.7-1.5-2l-5.3-1.6C4.1,28.2,3.9,28.1,3.7,28.1z
		 M3.7,22.1c-0.5,0-0.9,0.1-1.3,0.4c-0.5,0.4-0.9,1-0.9,1.7c0,0.9,0.6,1.7,1.5,2l5.3,1.6c0.2,0.1,0.4,0.1,0.6,0.1
		c0.5,0,0.9-0.1,1.3-0.4c0.5-0.4,0.9-1,0.9-1.7c0-0.9-0.6-1.7-1.5-2l-5.3-1.6C4.1,22.2,3.9,22.1,3.7,22.1z"/>
</g>
<g>
	<path class="st0" d="M26.4,39.7c-3,0-5.9-1.2-8-3.3c-1.6-1.6-2.7-3.7-3.1-5.9C14.8,28.2,15.1,26,16,24c0.1-0.3,0.4-0.5,0.7-0.5
		c0.1,0,0.2,0,0.3,0.1c0.4,0.2,0.6,0.6,0.4,1c-1.6,3.6-0.8,7.9,2,10.7c1.8,1.8,4.3,2.8,6.9,2.8c2.6,0,5-1,6.9-2.8
		c3.8-3.7,3.8-9.8,0-13.5c-1.8-1.8-4.3-2.8-6.8-2.8c-1.3,0-2.7,0.3-3.9,0.8c-0.1,0-0.2,0.1-0.3,0.1c-0.3,0-0.6-0.2-0.7-0.5
		c-0.1-0.2-0.1-0.4,0-0.6c0.1-0.2,0.2-0.4,0.4-0.4c1.4-0.6,3-0.9,4.5-0.9c0.7,0,1.3,0.1,2,0.2c2.3,0.4,4.3,1.5,6,3.1
		c4.4,4.3,4.4,11.4,0,15.8C32.2,38.5,29.4,39.7,26.4,39.7z"/>
</g>
<g>
	<path class="st0" d="M18.9,22c-0.2,0-0.4-0.1-0.6-0.2c-0.3-0.3-0.3-0.8,0-1.1c0.2-0.1,0.4-0.2,0.6-0.2c0.2,0,0.4,0.1,0.6,0.2
		c0.3,0.3,0.3,0.8,0,1.1C19.3,21.9,19.1,22,18.9,22z"/>
</g>
<g>
	<path class="st0" d="M26,31.7c-0.2,0-0.4-0.1-0.6-0.2l-3.6-3.5c-0.3-0.3-0.3-0.8,0-1.1c0.2-0.1,0.4-0.2,0.6-0.2
		c0.2,0,0.4,0.1,0.6,0.2l3,3l5.3-5.3c0.2-0.1,0.4-0.2,0.6-0.2s0.4,0.1,0.6,0.2c0.2,0.1,0.2,0.3,0.2,0.6s-0.1,0.4-0.2,0.6l-5.9,5.8
		C26.4,31.6,26.2,31.7,26,31.7z"/>
</g>
</svg>
