<?xml version="1.0" encoding="utf-8"?>
<!-- Generator: Adobe Illustrator 22.0.1, SVG Export Plug-In . SVG Version: 6.00 Build 0)  -->
<svg version="1.1" id="Layer_1" xmlns="http://www.w3.org/2000/svg" xmlns:xlink="http://www.w3.org/1999/xlink" x="0px" y="0px"
	 viewBox="0 0 49 49" style="enable-background:new 0 0 49 49;" xml:space="preserve">
<style type="text/css">
	.st0{fill:#333333;}
</style>
<g>
	<path class="st0" d="M36.9,26.8c-0.6,0-1.1,0.5-1.1,1.1c0,6.2-5.1,11.3-11.3,11.3c-6.2,0-11.3-5.1-11.3-11.3c0-0.6-0.5-1.1-1.1-1.1
		c-0.6,0-1.1,0.5-1.1,1.1c0,7.5,6.1,13.5,13.5,13.5C32,41.4,38,35.3,38,27.9C38,27.3,37.5,26.8,36.9,26.8L36.9,26.8z M36.9,26.8"/>
	<path class="st0" d="M14.4,15.5c1.9,0,3.4,1.5,3.4,3.4c0,0.6,0.5,1.1,1.1,1.1c0.6,0,1.1-0.5,1.1-1.1c0-3.1-2.5-5.6-5.6-5.6
		c-3.1,0-5.6,2.5-5.6,5.6c0,0.6,0.5,1.1,1.1,1.1c0.6,0,1.1-0.5,1.1-1.1C11,17,12.5,15.5,14.4,15.5L14.4,15.5z M14.4,15.5"/>
	<path class="st0" d="M34.6,13.2c-3.1,0-5.6,2.5-5.6,5.6c0,0.6,0.5,1.1,1.1,1.1c0.6,0,1.1-0.5,1.1-1.1c0-1.9,1.5-3.4,3.4-3.4
		c1.9,0,3.4,1.5,3.4,3.4c0,0.6,0.5,1.1,1.1,1.1c0.6,0,1.1-0.5,1.1-1.1C40.3,15.8,37.7,13.2,34.6,13.2L34.6,13.2z M34.6,13.2"/>
	<g>
		<g>
			<path class="st0" d="M24.5,49C11,49,0,38,0,24.5C0,11,11,0,24.5,0c2.6,0,5.2,0.4,7.7,1.2C32.7,1.4,33,2,32.8,2.5
				c-0.1,0.4-0.5,0.7-0.9,0.7c-0.1,0-0.2,0-0.3-0.1C29.3,2.3,26.9,2,24.5,2C12.1,2,2,12.1,2,24.5C2,36.9,12.1,47,24.5,47
				C36.9,47,47,36.9,47,24.5c0-6.9-3.1-13.4-8.6-17.7c-0.4-0.3-0.5-1-0.2-1.4c0.2-0.2,0.5-0.4,0.8-0.4c0.2,0,0.4,0.1,0.6,0.2
				C45.6,10,49,17,49,24.5C49,38,38,49,24.5,49z"/>
		</g>
		<g>
			<path class="st0" d="M35.7,5c-0.5,0-1-0.4-1-1c0-0.6,0.4-1,1-1s1,0.4,1,1C36.7,4.6,36.2,5,35.7,5z"/>
		</g>
	</g>
</g>
</svg>
