<?xml version="1.0" encoding="utf-8"?>
<!-- Generator: Adobe Illustrator 22.0.1, SVG Export Plug-In . SVG Version: 6.00 Build 0)  -->
<svg version="1.1" id="Capa_1" xmlns="http://www.w3.org/2000/svg" xmlns:xlink="http://www.w3.org/1999/xlink" x="0px" y="0px"
	 viewBox="0 0 55 50" style="enable-background:new 0 0 55 50;" xml:space="preserve">
<style type="text/css">
	.st0{fill:#333333;}
</style>
<g>
	<g>
		<path class="st0" d="M47.1,0H7.9C3.6,0,0,3.5,0,7.8c0,0.6,0.5,1.1,1.1,1.1h1.1v40c0,0.6,0.5,1.1,1.1,1.1s1.1-0.5,1.1-1.1V29h46.4
			v19.9c0,0.6,0.5,1.1,1.1,1.1s1.1-0.5,1.1-1.1v-40h1.1c0.6,0,1.1-0.5,1.1-1.1C55,3.5,51.4,0,47.1,0z M50.7,26.9H4.3v-18l46.4,0
			V26.9z M2.2,6.8c0.5-2.7,2.9-4.7,5.7-4.7h39.1c2.8,0,5.2,2,5.7,4.7H2.2z"/>
	</g>
</g>
<g>
	<g>
		<path class="st0" d="M34.4,36.1c-0.2-0.2-0.5-0.3-0.8-0.3s-0.6,0.1-0.8,0.3c-0.2,0.2-0.3,0.5-0.3,0.7c0,0.3,0.1,0.6,0.3,0.7
			c0.2,0.2,0.5,0.3,0.8,0.3s0.6-0.1,0.8-0.3s0.3-0.5,0.3-0.7C34.7,36.6,34.6,36.3,34.4,36.1z"/>
	</g>
</g>
<g>
	<g>
		<path class="st0" d="M45.6,35.8h-7.9c-0.6,0-1.1,0.5-1.1,1.1c0,0.6,0.5,1.1,1.1,1.1h7.9c0.9,0,1.6,0.7,1.6,1.6
			c0,0.9-0.7,1.6-1.6,1.6h-36c-0.9,0-1.6-0.7-1.6-1.6c0-0.9,0.7-1.6,1.6-1.6h19.5c0.6,0,1.1-0.5,1.1-1.1c0-0.6-0.5-1.1-1.1-1.1H9.6
			c-2.1,0-3.8,1.7-3.8,3.7s1.7,3.7,3.8,3.7h0.7v5.7c0,0.6,0.5,1.1,1.1,1.1h5.2c0.6,0,1.1-0.5,1.1-1.1v-5.7h19.7v5.7
			c0,0.6,0.5,1.1,1.1,1.1h5.2c0.6,0,1.1-0.5,1.1-1.1v-5.7h0.9c2.1,0,3.8-1.7,3.8-3.7S47.7,35.8,45.6,35.8z M15.5,47.9h-3v-4.7h3
			V47.9z M42.5,47.9h-3v-4.7h3V47.9z"/>
	</g>
</g>
</svg>
