<?xml version="1.0" encoding="utf-8"?>
<!-- Generator: Adobe Illustrator 22.0.1, SVG Export Plug-In . SVG Version: 6.00 Build 0)  -->
<svg version="1.1" id="Capa_1" xmlns="http://www.w3.org/2000/svg" xmlns:xlink="http://www.w3.org/1999/xlink" x="0px" y="0px"
	 viewBox="0 0 58 58" style="enable-background:new 0 0 58 58;" xml:space="preserve">
<style type="text/css">
	.st0{fill:#333333;}
</style>
<path class="st0" d="M29,1.273c3.744,0,7.375,0.733,10.792,2.178c3.302,1.396,6.267,3.396,8.814,5.943
	c2.547,2.547,4.546,5.512,5.943,8.814c1.446,3.418,2.178,7.049,2.178,10.792s-0.733,7.375-2.178,10.792
	c-1.396,3.302-3.396,6.267-5.943,8.814c-2.547,2.547-5.512,4.546-8.814,5.943c-3.418,1.445-7.049,2.178-10.792,2.178
	s-7.375-0.733-10.792-2.178c-3.302-1.396-6.267-3.396-8.814-5.943s-4.546-5.512-5.943-8.814C2.006,36.375,1.273,32.744,1.273,29
	s0.733-7.375,2.178-10.792c1.396-3.302,3.396-6.267,5.943-8.814s5.512-4.546,8.814-5.943C21.625,2.006,25.256,1.273,29,1.273 M29,0
	C12.984,0,0,12.984,0,29s12.984,29,29,29s29-12.984,29-29S45.016,0,29,0L29,0z"/>
<path class="st0" d="M22.93,52.315c-0.057,0-0.114-0.008-0.17-0.023C14.464,50.069,7.93,43.536,5.708,35.241
	c-0.045-0.169-0.022-0.346,0.066-0.498c0.088-0.152,0.229-0.26,0.399-0.306c0.056-0.015,0.114-0.023,0.171-0.023
	c0.296,0,0.556,0.2,0.633,0.487c2.102,7.843,8.28,14.021,16.123,16.123c0.169,0.045,0.311,0.154,0.398,0.306
	c0.088,0.152,0.111,0.329,0.066,0.498C23.486,52.115,23.226,52.315,22.93,52.315z"/>
<path class="st0" d="M51.657,23.585c-0.296,0-0.556-0.2-0.633-0.487c-2.101-7.843-8.279-14.021-16.123-16.123
	c-0.169-0.045-0.311-0.154-0.398-0.306c-0.088-0.152-0.111-0.328-0.066-0.498c0.077-0.287,0.337-0.487,0.633-0.487
	c0.057,0,0.114,0.008,0.17,0.023c8.295,2.223,14.829,8.756,17.051,17.051c0.094,0.349-0.115,0.71-0.464,0.803
	C51.772,23.577,51.715,23.585,51.657,23.585z"/>
<path class="st0" d="M28.197,53.1c-0.337-0.011-0.675-0.03-1.001-0.054c-0.175-0.013-0.334-0.093-0.449-0.226
	c-0.114-0.133-0.17-0.302-0.157-0.477c0.026-0.341,0.312-0.607,0.652-0.607c0.017,0,0.034,0.001,0.05,0.002
	c0.314,0.023,0.633,0.041,0.949,0.051c0.175,0.006,0.337,0.08,0.457,0.208c0.12,0.128,0.182,0.295,0.176,0.47
	c-0.012,0.356-0.3,0.634-0.655,0.634L28.197,53.1z"/>
<path class="st0" d="M30.756,6.264c-0.016,0-0.032,0-0.048-0.002c-0.318-0.023-0.637-0.041-0.951-0.052
	c-0.175-0.006-0.338-0.08-0.457-0.208c-0.12-0.128-0.182-0.295-0.176-0.47c0.012-0.35,0.304-0.634,0.652-0.634l0.025,0
	c0.332,0.011,0.669,0.029,1.004,0.054c0.361,0.027,0.632,0.342,0.605,0.703C31.384,5.997,31.097,6.264,30.756,6.264z"/>
<g>
	<g>
		<path class="st0" d="M29,48.205C18.41,48.205,9.795,39.59,9.795,29S18.41,9.795,29,9.795S48.205,18.41,48.205,29
			S39.59,48.205,29,48.205z M29,11.183c-9.824,0-17.817,7.993-17.817,17.817c0,9.824,7.993,17.817,17.817,17.817
			c9.824,0,17.817-7.993,17.817-17.817C46.817,19.176,38.824,11.183,29,11.183z"/>
	</g>
	<g>
		<path class="st0" d="M17.696,37.726c-0.228,0-0.435-0.106-0.567-0.291c-1.771-2.486-2.707-5.403-2.707-8.434
			c0-8.038,6.539-14.578,14.578-14.578c3.032,0,5.948,0.936,8.434,2.708c0.167,0.119,0.272,0.304,0.289,0.508
			c0.017,0.204-0.056,0.404-0.201,0.549L18.186,37.522C18.055,37.653,17.881,37.726,17.696,37.726
			C17.697,37.726,17.697,37.726,17.696,37.726z M29,15.811c-7.273,0-13.189,5.917-13.189,13.189c0,2.244,0.582,4.465,1.683,6.421
			l0.299,0.532l18.16-18.16l-0.532-0.299C33.465,16.393,31.244,15.811,29,15.811z"/>
	</g>
	<g>
		<path class="st0" d="M29,43.577c-3.032,0-5.949-0.937-8.435-2.709c-0.166-0.119-0.271-0.304-0.288-0.508
			c-0.017-0.204,0.056-0.404,0.201-0.548l19.336-19.335c0.131-0.131,0.305-0.203,0.489-0.203c0.228,0,0.435,0.106,0.567,0.291
			c1.771,2.486,2.708,5.403,2.708,8.434C43.577,37.038,37.038,43.577,29,43.577z M22.047,40.207l0.531,0.299
			c1.956,1.101,4.176,1.683,6.421,1.683c7.273,0,13.189-5.917,13.189-13.189c0-2.245-0.582-4.465-1.683-6.421l-0.299-0.532
			L22.047,40.207z"/>
	</g>
</g>
</svg>
