<?xml version="1.0" encoding="utf-8"?>
<!-- Generator: Adobe Illustrator 22.0.1, SVG Export Plug-In . SVG Version: 6.00 Build 0)  -->
<svg version="1.1" id="Capa_1" xmlns="http://www.w3.org/2000/svg" xmlns:xlink="http://www.w3.org/1999/xlink" x="0px" y="0px"
	 viewBox="0 0 36 29" style="enable-background:new 0 0 36 29;" xml:space="preserve">
<style type="text/css">
	.st0{fill:#333333;}
</style>
<g>
	<g>
		<g>
			<g>
				<g>
					<path class="st0" d="M10,8.1L10,8.1c0.1,0.1,0.2,0.1,0.3,0.1c0.3,0,0.5-0.1,0.6-0.4c0.2-0.3,0-0.8-0.3-0.9l0,0
						c-0.4-0.2-0.8,0-0.9,0.3C9.5,7.5,9.7,7.9,10,8.1z"/>
				</g>
				<g>
					<path class="st0" d="M35.8,3.5c-0.2-0.2-0.5-0.3-0.8-0.2c-0.4,0.2-0.9,0.4-1.3,0.5c0.6-0.7,1-1.5,1.3-2.4
						c0.1-0.3,0-0.6-0.2-0.8S34.2,0.5,34,0.6c-1.2,0.7-2.5,1.2-3.9,1.5C28.6,0.8,26.7,0,24.7,0c-4.3,0-7.8,3.4-7.8,7.7
						c0,0.3,0,0.6,0,0.8c-1.1-0.1-2.2-0.3-3.3-0.6c-0.4-0.1-0.8,0.1-0.9,0.5c-0.1,0.4,0.1,0.7,0.5,0.8c1.4,0.4,2.9,0.6,4.4,0.7
						c0.2,0,0.4-0.1,0.6-0.2c0.1-0.2,0.2-0.4,0.1-0.6c-0.1-0.5-0.2-1-0.2-1.4c0-3.5,2.9-6.3,6.4-6.3c1.8,0,3.5,0.7,4.7,2
						c0.2,0.2,0.4,0.3,0.6,0.2c1-0.2,1.9-0.5,2.8-0.8c-0.5,0.7-1.2,1.3-1.9,1.7c-0.3,0.2-0.4,0.5-0.3,0.8s0.4,0.5,0.7,0.5
						c0.6-0.1,1.3-0.2,1.9-0.4C32.7,6,32,6.5,31.3,7C31.1,7.1,31,7.4,31,7.6l0,0.9c0,9.4-7.3,19.1-19.5,19.1c-2.8,0-5.5-0.6-8-1.7
						c3-0.2,5.7-1.3,8.1-3.1c0.2-0.2,0.3-0.5,0.2-0.8c-0.1-0.3-0.4-0.5-0.7-0.5c-2.4,0-4.5-1.4-5.5-3.3c0.1,0,0.2,0,0.2,0
						c0.7,0,1.4-0.1,2-0.3c0.3-0.1,0.5-0.4,0.5-0.7c0-0.3-0.2-0.6-0.6-0.7c-2.6-0.5-4.6-2.6-5-5.1c0.8,0.3,1.6,0.4,2.4,0.5
						c0.3,0,0.6-0.2,0.7-0.5c0.1-0.3,0-0.6-0.3-0.8C3.9,9.5,2.9,7.6,2.9,5.5c0-0.8,0.1-1.5,0.4-2.3c1.1,1.2,2.4,2.3,3.9,3.3
						c0.3,0.2,0.8,0.1,1-0.2c0.2-0.3,0.1-0.7-0.2-1C6.3,4.3,4.9,3,3.7,1.5C3.5,1.4,3.3,1.3,3.1,1.3c-0.2,0-0.4,0.1-0.6,0.3
						C1.8,2.8,1.4,4.1,1.4,5.5C1.4,7.2,2,8.8,3,10.1C2.8,10,2.6,9.9,2.4,9.8C2.2,9.7,2,9.7,1.7,9.8c-0.2,0.1-0.3,0.4-0.3,0.6v0.1
						c0,2.6,1.3,4.9,3.3,6.3c0,0,0,0,0,0c-0.2,0-0.5,0-0.7,0.2c-0.2,0.2-0.2,0.4-0.1,0.7c0.8,2.5,2.9,4.4,5.4,5.1
						c-2.1,1.2-4.5,1.9-6.9,1.9c-0.5,0-1.1,0-1.6-0.1c-0.3,0-0.6,0.2-0.7,0.5c-0.1,0.3,0,0.6,0.3,0.8C3.7,27.9,7.6,29,11.6,29
						c3.2,0,6.2-0.6,9-1.9c2.5-1.1,4.7-2.8,6.6-4.8c3.4-3.8,5.4-8.8,5.4-13.8c0,0,0,0,0,0l0-0.5c1.3-1,2.5-2.2,3.4-3.6
						C36.1,4.1,36,3.7,35.8,3.5z"/>
				</g>
			</g>
		</g>
	</g>
</g>
<g>
	<g>
		<g>
			<g>
				<path class="st0" d="M26.5,16.8c-0.3-0.2-0.8-0.1-1,0.2l0,0c-0.2,0.3-0.1,0.8,0.2,0.9c0.1,0.1,0.2,0.1,0.4,0.1
					c0.2,0,0.5-0.1,0.6-0.3C26.9,17.4,26.8,17,26.5,16.8z"/>
			</g>
		</g>
	</g>
</g>
<g>
	<g>
		<g>
			<g>
				<path class="st0" d="M25.1,18.9c-0.3-0.2-0.7-0.2-1,0.1c-1.2,1.5-2.7,2.7-4.3,3.6c-0.3,0.2-0.5,0.6-0.3,0.9
					c0.1,0.2,0.4,0.3,0.6,0.3c0.1,0,0.2,0,0.3-0.1c1.8-1,3.4-2.3,4.7-3.9C25.5,19.5,25.4,19.1,25.1,18.9z"/>
			</g>
		</g>
	</g>
</g>
</svg>
