<?xml version="1.0" encoding="utf-8"?>
<!-- Generator: Adobe Illustrator 22.0.1, SVG Export Plug-In . SVG Version: 6.00 Build 0)  -->
<svg version="1.1" id="Capa_1" xmlns="http://www.w3.org/2000/svg" xmlns:xlink="http://www.w3.org/1999/xlink" x="0px" y="0px"
	 viewBox="0 0 58 48" style="enable-background:new 0 0 58 48;" xml:space="preserve">
<style type="text/css">
	.st0{fill:#333333;}
</style>
<g>
	<g>
		<path class="st0" d="M16.5,12.9c-0.1,0-0.2,0-0.3-0.1l-0.1,0c-0.2-0.1-0.3-0.2-0.4-0.4c-0.1-0.2-0.1-0.4,0-0.5
			c0.1-0.2,0.4-0.4,0.6-0.4c0.1,0,0.2,0,0.3,0.1l0,0c0.3,0.2,0.5,0.6,0.3,0.9C17,12.7,16.8,12.9,16.5,12.9z"/>
	</g>
	<g>
		<path class="st0" d="M18.5,48C12,48,5.8,46.1,0.3,42.6C0,42.4-0.1,42.1,0,41.8c0.1-0.3,0.4-0.5,0.7-0.5c0,0,0.1,0,0.1,0
			c0.9,0.1,1.8,0.2,2.7,0.2c4.1,0,8.1-1.1,11.6-3.2l0.9-0.6l-1.1-0.3c-4.1-1.1-7.3-4.2-8.5-8.2c-0.1-0.2,0-0.5,0.1-0.7
			c0.1-0.2,0.3-0.2,0.5-0.2c0,0,0.1,0,0.1,0l0,0l0.3-0.8c-3.3-2.3-5.3-6.2-5.3-10.2v-0.1c0-0.2,0.1-0.5,0.3-0.6
			c0.1-0.1,0.2-0.1,0.4-0.1c0.1,0,0.2,0,0.3,0.1c0.3,0.2,0.6,0.3,1,0.5l1.6,0.7l-1-1.4c-1.6-2.2-2.5-4.8-2.5-7.5
			c0-2.2,0.6-4.4,1.7-6.3c0.1-0.2,0.3-0.3,0.5-0.3c0,0,0,0,0.1,0c0.2,0,0.4,0.1,0.5,0.3c2,2.5,4.4,4.7,7.1,6.5
			c0.2,0.1,0.3,0.3,0.3,0.4c0,0.2,0,0.4-0.1,0.5c-0.1,0.2-0.3,0.3-0.6,0.3c-0.1,0-0.3,0-0.4-0.1C9.2,8.6,7.1,6.7,5.2,4.6L4.7,4.1
			L4.5,4.8C4,6.1,3.7,7.4,3.7,8.8c0,3.7,1.8,7.1,4.9,9.2c0.3,0.2,0.4,0.5,0.3,0.8c-0.1,0.3-0.4,0.5-0.7,0.5l0,0
			c-1.3,0-2.6-0.3-3.8-0.7l-0.7-0.3L3.8,19c0.7,4.5,4.2,8.2,8.6,9.1c0.3,0.1,0.5,0.3,0.6,0.7c0,0.3-0.2,0.6-0.5,0.7
			c-1,0.3-2.1,0.4-3.2,0.4c-0.1,0-0.2,0-0.4,0l-0.8,0l0.4,0.7c1.9,3.5,5.5,5.8,9.5,5.9c0.3,0,0.5,0.2,0.6,0.5c0.1,0.3,0,0.6-0.2,0.8
			c-3.8,3-8.2,4.7-13,5.1l-0.2,0.9c4.2,1.9,8.7,2.9,13.3,2.9c20.2,0,32.3-16.7,32.3-32.8l0-1.5c0-0.2,0.1-0.4,0.3-0.6
			c1.1-0.8,2.2-1.8,3.2-2.8l1.1-1.2l-1.6,0.4c-1,0.3-2.1,0.5-3.1,0.6c0,0-0.1,0-0.1,0c-0.3,0-0.6-0.2-0.7-0.5
			c-0.1-0.3,0-0.7,0.3-0.8c1.3-0.8,2.4-1.8,3.3-3l0.9-1.3L53,3.7c-1.5,0.6-3,1.1-4.5,1.4c0,0-0.1,0-0.1,0c-0.2,0-0.4-0.1-0.5-0.2
			c-2.1-2.2-5-3.5-8-3.5c-6,0-10.9,5-10.9,11.1c0,0.8,0.1,1.7,0.3,2.5c0,0.2,0,0.4-0.1,0.6c-0.1,0.2-0.3,0.2-0.5,0.2c0,0,0,0,0,0
			c-2.4-0.1-4.8-0.5-7.2-1.2c-0.2,0-0.3-0.2-0.4-0.3c-0.1-0.2-0.1-0.4-0.1-0.5c0.1-0.3,0.4-0.5,0.7-0.5c0.1,0,0.1,0,0.2,0
			c1.8,0.5,3.6,0.8,5.4,1l0.6,0.1l-0.1-0.6c0-0.5-0.1-0.9-0.1-1.4C27.6,5.6,33.1,0,39.9,0c3.1,0,6.3,1.3,8.5,3.5l0.2,0.2l0.2-0.1
			c2.3-0.5,4.5-1.4,6.6-2.6c0.1-0.1,0.2-0.1,0.4-0.1c0.2,0,0.3,0.1,0.4,0.2c0.2,0.2,0.3,0.5,0.2,0.8c-0.5,1.4-1.2,2.7-2.1,3.9
			l-0.9,1.2l1.4-0.5c0.7-0.2,1.5-0.5,2.2-0.8c0.1,0,0.2-0.1,0.3-0.1c0.2,0,0.4,0.1,0.5,0.2c0.2,0.2,0.2,0.6,0,0.8
			c-1.5,2.3-3.3,4.3-5.5,5.9l-0.2,0.1l0,1.2c0,8.3-3.2,16.7-8.7,23c-3,3.4-6.6,6.1-10.6,8C28.6,47,23.7,48,18.5,48z"/>
	</g>
</g>
<g>
	<path class="st0" d="M42.3,29.6c-0.1,0-0.2,0-0.4-0.1c-0.2-0.1-0.3-0.2-0.3-0.4c0-0.2,0-0.4,0.1-0.5c0.1-0.2,0.3-0.3,0.6-0.3
		c0.1,0,0.2,0,0.4,0.1c0.3,0.2,0.4,0.6,0.2,1C42.8,29.4,42.5,29.6,42.3,29.6z"/>
</g>
<g>
	<path class="st0" d="M32.5,39.3c-0.2,0-0.5-0.1-0.6-0.4c-0.2-0.3-0.1-0.8,0.3-1c2.7-1.6,5.2-3.7,7.2-6.2c0.1-0.2,0.3-0.3,0.5-0.3
		c0.2,0,0.3,0.1,0.4,0.2c0.1,0.1,0.2,0.3,0.2,0.5c0,0.2,0,0.4-0.2,0.5c-2.2,2.7-4.7,4.8-7.6,6.5C32.8,39.3,32.6,39.3,32.5,39.3z"/>
</g>
</svg>
