<?xml version="1.0" encoding="utf-8"?>
<!-- Generator: Adobe Illustrator 22.0.1, SVG Export Plug-In . SVG Version: 6.00 Build 0)  -->
<svg version="1.1" id="Capa_1" xmlns="http://www.w3.org/2000/svg" xmlns:xlink="http://www.w3.org/1999/xlink" x="0px" y="0px"
	 viewBox="0 0 55 40" style="enable-background:new 0 0 55 40;" xml:space="preserve">
<style type="text/css">
	.st0{fill:#333333;}
</style>
<g>
	<path class="st0" d="M27.7,1.5c-0.4,0-0.8-0.3-0.8-0.8c0-0.4,0.3-0.8,0.8-0.8l0.1,0c0.4,0,0.8,0.3,0.8,0.8
		C28.5,1.2,28.2,1.5,27.7,1.5L27.7,1.5z"/>
</g>
<g>
	<path class="st0" d="M27.5,40c-0.7,0-16.9,0-21.1-1.2c-2.6-0.7-4.6-2.8-5.3-5.4C0,29.1,0,20.4,0,20c0-0.4,0-9.1,1.1-13.4
		c0.7-2.6,2.7-4.7,5.3-5.4c2.8-0.8,10.7-1,16.8-1.1C23.6,0,24,0.4,24,0.8c0,0.4-0.3,0.8-0.7,0.8C14.7,1.7,8.9,2.1,6.8,2.7
		C4.8,3.2,3.2,4.9,2.6,7c-1.1,4.1-1.1,12.9-1.1,13c0,0.1,0,8.9,1.1,13c0.5,2.1,2.2,3.8,4.2,4.3c4,1.1,20.5,1.1,20.7,1.1
		s16.7,0,20.7-1.1c2-0.6,3.6-2.2,4.2-4.3c1.1-4.1,1.1-12.9,1.1-13c0-0.1,0-8.9-1.1-13c-0.5-2.1-2.2-3.8-4.2-4.3
		c-2-0.6-7.7-0.9-16-1.1c-0.4,0-0.8-0.4-0.7-0.8c0-0.4,0.3-0.8,0.8-0.8c6,0.1,13.6,0.4,16.3,1.1c2.6,0.7,4.6,2.8,5.3,5.4
		C55,10.9,55,19.6,55,20c0,0.4,0,9.1-1.1,13.4c-0.7,2.6-2.7,4.7-5.3,5.4C44.4,40,28.2,40,27.5,40z"/>
</g>
<g>
	<path class="st0" d="M6,27.9c-0.4,0-0.8-0.3-0.8-0.8v-9c0-0.4,0.3-0.8,0.8-0.8s0.8,0.3,0.8,0.8v9C6.7,27.6,6.4,27.9,6,27.9z"/>
</g>
<g>
	<path class="st0" d="M6,14c-0.4,0-0.8-0.3-0.8-0.8v0c0-0.4,0.3-0.8,0.8-0.8s0.8,0.3,0.8,0.8v0C6.7,13.6,6.4,14,6,14z"/>
</g>
<g>
	<path class="st0" d="M22.3,28.8c-0.1,0-0.3,0-0.4-0.1c-0.2-0.1-0.4-0.4-0.4-0.7V12.3c0-0.3,0.1-0.5,0.4-0.7
		c0.1-0.1,0.2-0.1,0.4-0.1c0.1,0,0.3,0,0.4,0.1l13.5,7.9c0.2,0.1,0.4,0.4,0.4,0.7s-0.1,0.5-0.4,0.7l-13.5,7.9
		C22.6,28.8,22.4,28.8,22.3,28.8z M23.1,26.7l11.2-6.6l-11.2-6.6V26.7z"/>
</g>
</svg>
