<?xml version="1.0" encoding="utf-8"?>
<!-- Generator: Adobe Illustrator 22.0.1, SVG Export Plug-In . SVG Version: 6.00 Build 0)  -->
<svg version="1.1" id="Capa_1" xmlns="http://www.w3.org/2000/svg" xmlns:xlink="http://www.w3.org/1999/xlink" x="0px" y="0px"
	 viewBox="0 0 32 24" style="enable-background:new 0 0 32 24;" xml:space="preserve">
<style type="text/css">
	.st0{fill:#333333;}
</style>
<g>
	<g>
		<g>
			<g>
				<path class="st0" d="M16.2,0L16.2,0C16.1,0,16.1,0,16.2,0c-0.4,0-0.7,0.3-0.7,0.6c0,0,0,0,0,0c0,0.4,0.3,0.6,0.6,0.6l0,0
					c0,0,0,0,0,0c0.3,0,0.6-0.3,0.6-0.6c0,0,0,0,0,0C16.8,0.3,16.5,0,16.2,0z"/>
			</g>
		</g>
	</g>
</g>
<g>
	<g>
		<g>
			<g>
				<path class="st0" d="M31.3,4c-0.4-1.6-1.6-2.9-3.2-3.3c-1.6-0.4-6-0.6-9.4-0.7c-0.3,0-0.6,0.3-0.6,0.6s0.3,0.7,0.6,0.7
					c4.7,0.1,8,0.3,9.1,0.6c1.1,0.3,2,1.2,2.3,2.4c0.6,2.4,0.6,7.6,0.6,7.6c0,0.1,0,5.2-0.6,7.6c-0.3,1.2-1.2,2.1-2.3,2.4
					c-2.3,0.6-11.8,0.7-11.8,0.7s-9.6,0-11.9-0.7c-1.1-0.3-2-1.2-2.3-2.4c-0.6-2.4-0.6-7.6-0.6-7.6c0-0.1,0-5.2,0.6-7.6
					C2.2,3.2,3,2.3,4.2,2c1.2-0.3,4.5-0.6,9.4-0.6c0.3,0,0.6-0.3,0.6-0.7c0-0.4-0.3-0.6-0.6-0.6C10,0.1,5.4,0.2,3.8,0.7
					C2.3,1.1,1.1,2.4,0.7,4C0,6.6,0,11.8,0,12c0,0.2,0,5.4,0.7,8c0.4,1.6,1.6,2.9,3.2,3.3C6.3,24,15.6,24,16,24s9.7,0,12.2-0.7
					c1.5-0.4,2.7-1.7,3.2-3.3c0.7-2.6,0.7-7.8,0.7-8C32,11.8,32,6.6,31.3,4z"/>
			</g>
		</g>
	</g>
</g>
<g>
	<g>
		<g>
			<g>
				<path class="st0" d="M3.6,10.3c-0.3,0-0.6,0.3-0.6,0.6v5.3c0,0.4,0.3,0.6,0.6,0.6s0.6-0.3,0.6-0.6v-5.3
					C4.3,10.6,4,10.3,3.6,10.3z"/>
			</g>
		</g>
	</g>
</g>
<g>
	<g>
		<g>
			<g>
				<path class="st0" d="M3.6,7.3C3.3,7.3,3,7.6,3,8v0c0,0.4,0.3,0.6,0.6,0.6S4.3,8.3,4.3,8v0C4.3,7.6,4,7.3,3.6,7.3z"/>
			</g>
		</g>
	</g>
</g>
<g>
	<g>
		<g>
			<g>
				<path class="st0" d="M21.1,11.5l-7.8-4.7c-0.2-0.1-0.4-0.1-0.6,0s-0.3,0.3-0.3,0.6v9.3c0,0.2,0.1,0.4,0.3,0.6
					c0.1,0.1,0.2,0.1,0.3,0.1c0.1,0,0.2,0,0.3-0.1l7.8-4.7c0.2-0.1,0.3-0.3,0.3-0.6C21.4,11.9,21.3,11.7,21.1,11.5z M13.6,15.6V8.6
					l5.9,3.5L13.6,15.6z"/>
			</g>
		</g>
	</g>
</g>
</svg>
